<svg xmlns="http://www.w3.org/2000/svg" viewBox="165 48 190 250" fill="currentColor">
  <path d="m 235.35337,67.173968 c -20.15061,0 -36.28768,11.651913 -36.57718,11.651913 -15.59917,11.402572 -25.65358,28.942499 -25.65358,48.306599 0,19.3641 11.08883,33.71096 30.70155,33.71096 16.9646,0 30.20529,-11.40271 30.20529,-28.9425 0,-15.13482 -13.24069,-27.57442 -28.09508,-27.57442 -3.18587,0 -6.08238,0.49757 -8.48223,1.32687 -2.64812,1.0369 -7.1168,3.69065 -9.26839,5.55657 1.86195,-11.693371 9.80628,-23.344869 20.15033,-28.942767 6.62042,-3.690375 15.10279,-5.307506 24.37118,-5.307506 27.01902,0 40.25971,21.769343 40.25971,66.344103 0,34.49893 -22.0127,84.1324 -47.95578,107.51874 -27.55705,25.21066 -53.50041,37.15268 -53.74867,37.15268 0,0 -3.18601,1.82446 -3.18601,5.01712 0,0.53904 0.24812,0.78783 0.24812,1.32687 0.82768,2.65376 3.18615,3.1928 5.0481,3.1928 l 0.78616,-0.24865 c 0.5379,0 30.7432,-12.4808 54.82433,-31.3476 37.07356,-26.78646 78.90572,-74.01483 78.90572,-122.86062 0,-46.192294 -24.86756,-75.881162 -72.53357,-75.881162 m 83.12602,33.669642 c 0,7.46381 5.83412,13.26876 12.74404,13.26876 6.8684,0 12.70266,-5.80495 12.70266,-13.26876 0,-7.422087 -5.83426,-13.517563 -12.70266,-13.517563 -6.90992,0 -12.74404,6.095476 -12.74404,13.517563 m 0,65.55612 c 0,7.42236 5.83412,13.5593 12.74404,13.5593 6.8684,0 12.70266,-6.13694 12.70266,-13.5593 0,-7.42221 -5.83426,-13.51755 -12.70266,-13.51755 -6.90992,0 -12.74404,6.09534 -12.74404,13.51755"/>
</svg>
