<svg xmlns="http://www.w3.org/2000/svg" viewBox="0 0 500 660" fill="currentColor">
  <!-- Left stem -->
  <polyline fill="none" stroke="currentColor" stroke-width="2.48" stroke-linejoin="bevel" points="566.529,493.83 566.529,410.998" transform="matrix(6.5702615,0,0,6.5702615,-3518.5656,-2700.3643)" />
  <!-- Right stem -->
  <polyline fill="none" stroke="currentColor" stroke-width="2.48" stroke-linejoin="bevel" points="566.529,493.83 566.529,410.998" transform="matrix(6.5702615,0,0,6.5702615,-3230.5656,-2700.3643)" />
  <!-- Beam connecting stems at top -->
  <rect x="195" y="0" width="296" height="42" rx="2" />
  <!-- Left filled notehead -->
  <path d="m 4.1112967e-6,597.69329 c 0,28.00573 20.1641398887033,59.27046 73.0184778887033,59.27046 67.723428,0 138.806748,-55.40058 138.806748,-112.73597 0,-38.49515 -32.58849,-59.98307 -73.01847,-59.98307 C 75.564912,484.24471 4.1112967e-6,537.71008 4.1112967e-6,597.69329" />
  <!-- Right filled notehead -->
  <path d="m 288.00001,597.69329 c 0,28.00573 20.16414,59.27046 73.01848,59.27046 67.72343,0 138.80675,-55.40058 138.80675,-112.73597 0,-38.49515 -32.58849,-59.98307 -73.01847,-59.98307 -63.24256,0 -138.80676,53.46537 -138.80676,113.44858" />
</svg>
