<?xml version="1.0" encoding="UTF-8" standalone="no"?>
<svg
   width="12.361mm"
   height="20mm"
   viewBox="0 0 175.19528 283.46457"
   version="1.2"
   id="svg14"
   sodipodi:docname="eight-rest.svg"
   inkscape:version="1.4.2 (f4327f4, 2025-05-13)"
   xmlns:inkscape="http://www.inkscape.org/namespaces/inkscape"
   xmlns:sodipodi="http://sodipodi.sourceforge.net/DTD/sodipodi-0.dtd"
   xmlns="http://www.w3.org/2000/svg"
   xmlns:svg="http://www.w3.org/2000/svg"
   xmlns:rdf="http://www.w3.org/1999/02/22-rdf-syntax-ns#"
   xmlns:cc="http://creativecommons.org/ns#"
   xmlns:dc="http://purl.org/dc/elements/1.1/">
  <defs
     id="defs14" />
  <sodipodi:namedview
     id="namedview14"
     pagecolor="#505050"
     bordercolor="#eeeeee"
     borderopacity="1"
     inkscape:showpageshadow="0"
     inkscape:pageopacity="0"
     inkscape:pagecheckerboard="0"
     inkscape:deskcolor="#505050"
     inkscape:document-units="mm"
     inkscape:zoom="3.765389"
     inkscape:cx="22.44124"
     inkscape:cy="36.251234"
     inkscape:window-width="1920"
     inkscape:window-height="986"
     inkscape:window-x="-11"
     inkscape:window-y="-11"
     inkscape:window-maximized="1"
     inkscape:current-layer="svg14" />
  <title
     id="title1">Untitled score</title>
  <desc
     id="desc1">Generated by MuseScore Studio 4.6.3</desc>
  <path
     class="Rest"
     d="m 159.55978,14.283621 c -0.52304,0 -1.65592,-0.610388 -2.26631,-0.610388 -3.31284,0 -6.10242,1.743484 -7.23557,4.533058 -2.26624,3.312902 -19.52701,36.264471 -44.6332,54.658508 -7.235569,5.57915 -16.214118,9.50199 -25.106169,11.158299 6.102476,-7.235458 10.025147,-16.214289 10.025147,-26.762762 0,-21.793271 -17.870544,-39.663869 -39.577203,-39.663869 -22.316595,0 -40.187307,17.870598 -40.187307,39.663869 0,30.075382 29.552055,44.023254 55.79149,44.023254 29.552168,0 49.079182,-13.947872 68.082952,-34.60844 L 70.816656,265.34533 85.89768,269.79134 164.00577,23.785441 c 0.61034,-0.609826 0.61034,-1.743484 0.61034,-2.789574 0,-2.789576 -1.74349,-5.055823 -5.05633,-6.712246"
     id="path14"
     style="stroke-width:5.57914" />
  <metadata
     id="metadata14">
    <rdf:RDF>
      <cc:Work
         rdf:about="">
        <dc:title>Untitled score</dc:title>
      </cc:Work>
    </rdf:RDF>
  </metadata>
</svg>
