<svg xmlns="http://www.w3.org/2000/svg" viewBox="0 0 175.19528 283.46457" fill="currentColor">
  <path d="m 159.55978,14.283621 c -0.52304,0 -1.65592,-0.610388 -2.26631,-0.610388 -3.31284,0 -6.10242,1.743484 -7.23557,4.533058 -2.26624,3.312902 -19.52701,36.264471 -44.6332,54.658508 -7.235569,5.57915 -16.214118,9.50199 -25.106169,11.158299 6.102476,-7.235458 10.025147,-16.214289 10.025147,-26.762762 0,-21.793271 -17.870544,-39.663869 -39.577203,-39.663869 -22.316595,0 -40.187307,17.870598 -40.187307,39.663869 0,30.075382 29.552055,44.023254 55.79149,44.023254 29.552168,0 49.079182,-13.947872 68.082952,-34.60844 L 70.816656,265.34533 85.89768,269.79134 164.00577,23.785441 c 0.61034,-0.609826 0.61034,-1.743484 0.61034,-2.789574 0,-2.789576 -1.74349,-5.055823 -5.05633,-6.712246" />
</svg>
