<?xml version="1.0" encoding="UTF-8" standalone="no"?>
<svg
   width="11.839mm"
   height="26.521mm"
   viewBox="0 0 167.79578 375.88582"
   version="1.2"
   id="svg11"
   sodipodi:docname="four-four_time.svg"
   inkscape:version="1.4.2 (f4327f4, 2025-05-13)"
   xmlns:inkscape="http://www.inkscape.org/namespaces/inkscape"
   xmlns:sodipodi="http://sodipodi.sourceforge.net/DTD/sodipodi-0.dtd"
   xmlns="http://www.w3.org/2000/svg"
   xmlns:svg="http://www.w3.org/2000/svg"
   xmlns:rdf="http://www.w3.org/1999/02/22-rdf-syntax-ns#"
   xmlns:cc="http://creativecommons.org/ns#"
   xmlns:dc="http://purl.org/dc/elements/1.1/">
  <defs
     id="defs11" />
  <sodipodi:namedview
     id="namedview11"
     pagecolor="#505050"
     bordercolor="#eeeeee"
     borderopacity="1"
     inkscape:showpageshadow="0"
     inkscape:pageopacity="0"
     inkscape:pagecheckerboard="0"
     inkscape:deskcolor="#505050"
     inkscape:document-units="mm"
     inkscape:zoom="3.765389"
     inkscape:cx="23.237971"
     inkscape:cy="56.169495"
     inkscape:window-width="1920"
     inkscape:window-height="986"
     inkscape:window-x="-11"
     inkscape:window-y="-11"
     inkscape:window-maximized="1"
     inkscape:current-layer="svg11">
    <inkscape:page
       x="0"
       y="0"
       width="167.79578"
       height="375.88583"
       id="page2"
       margin="0"
       bleed="0" />
  </sodipodi:namedview>
  <title
     id="title1">Untitled score</title>
  <desc
     id="desc1">Generated by MuseScore Studio 4.6.3</desc>
  <path
     class="TimeSig"
     d="m 76.446608,140.1908 v 26.37492 h -30.79145 c -2.609356,0 -5.218683,2.1744 -5.218683,5.01826 v 6.80294 c 0,2.84354 2.609327,4.96257 5.218683,4.96257 H 158.09305 c 3.01534,0 5.21872,-2.11903 5.21872,-4.96257 v -6.80294 c 0,-2.84386 -2.20338,-5.01826 -5.21872,-5.01826 H 124.69223 V 140.1908 h 33.40082 c 3.01534,0 5.21872,-2.50915 5.21872,-5.353 v -6.80269 c 0,-2.50922 -2.20338,-4.96268 -5.21872,-4.96268 H 124.69223 V 66.308347 c 0,-2.118894 -1.10184,-3.903219 -2.55145,-4.628111 l -4.46493,-2.174657 c -0.75409,-0.334559 -1.10187,-0.334559 -1.85559,-0.334559 -1.50787,0 -2.95748,0 -4.11723,1.059451 L 77.954133,89.839234 c -1.101499,1.115215 -1.507525,2.509217 -1.507525,3.958991 V 123.07243 H 33.419799 c 0,0 41.577233,-42.823978 85.357561,-99.253678 1.50782,-1.784334 1.85559,-3.568669 1.85559,-4.962567 0,-1.784334 -0.75376,-3.233957 -1.1015,-3.568668 l -8.1765,-7.8621436 c -1.1015,-0.7248068 -2.20338,-1.449945 -3.7112,-1.449945 -2.20337,0 -52.362475,0 -55.319945,0 -2.609327,0 -4.46493,2.1747613 -4.813044,4.2937976 0,0 -1.855603,26.430283 -11.481531,55.314239 -9.683915,28.939643 -20.81752,46.782965 -30.443447,59.942425 0,0 -1.1017638,1.78434 -1.1017638,3.95898 0,0.7249 0,1.3942 0.3479254,2.11897 1.1017639,2.50915 3.7112047,6.41255 3.7112047,6.41255 0,0 0.7538385,2.17441 4.0591297,2.17441 h 63.844329"
     id="path9"
     style="stroke-width:3.63924" />
  <metadata
     id="metadata11">
    <rdf:RDF>
      <cc:Work
         rdf:about="">
        <dc:title>Untitled score</dc:title>
      </cc:Work>
    </rdf:RDF>
  </metadata>
  <path
     class="TimeSig"
     d="m 76.446607,326.41033 v 26.37492 H 45.655159 c -2.609356,0 -5.218683,2.1744 -5.218683,5.01826 v 6.80294 c 0,2.84354 2.609327,4.96257 5.218683,4.96257 H 158.09305 c 3.01534,0 5.21872,-2.11903 5.21872,-4.96257 v -6.80294 c 0,-2.84386 -2.20338,-5.01826 -5.21872,-5.01826 h -33.40082 v -26.37492 h 33.40082 c 3.01534,0 5.21872,-2.50915 5.21872,-5.353 v -6.80269 c 0,-2.50922 -2.20338,-4.96268 -5.21872,-4.96268 h -33.40082 v -56.76408 c 0,-2.1189 -1.10184,-3.90322 -2.55145,-4.62811 l -4.46493,-2.17466 c -0.75409,-0.33456 -1.10187,-0.33456 -1.85559,-0.33456 -1.50787,0 -2.95748,0 -4.11723,1.05945 l -33.748893,29.60876 c -1.1015,1.11522 -1.50753,2.50922 -1.50753,3.959 v 29.2742 H 33.4198 c 0,0 41.577237,-42.82398 85.35756,-99.25368 1.50782,-1.78433 1.85559,-3.56867 1.85559,-4.96256 0,-1.78434 -0.75376,-3.23396 -1.1015,-3.56867 l -8.1765,-7.86215 c -1.1015,-0.7248 -2.20338,-1.44994 -3.7112,-1.44994 -2.20337,0 -52.362474,0 -55.319944,0 -2.609327,0 -4.46493,2.17476 -4.813044,4.2938 0,0 -1.855603,26.43028 -11.481531,55.31423 -9.683915,28.93965 -20.817521,46.78297 -30.443449,59.94243 0,0 -1.101764,1.78434 -1.101764,3.95898 0,0.7249 0,1.3942 0.347926,2.11897 1.101763,2.50915 3.711204,6.41255 3.711204,6.41255 0,0 0.753839,2.17441 4.059131,2.17441 h 63.844328"
     id="path9-9"
     style="stroke-width:3.63924" />
</svg>
