<svg xmlns="http://www.w3.org/2000/svg" viewBox="0 0 211.82524 656.96377" fill="currentColor">
  <!-- Stem (from quarter-note.svg) -->
  <polyline fill="none" stroke="currentColor" stroke-width="2.48" stroke-linejoin="bevel" points="566.529,493.83 566.529,410.998" transform="matrix(6.5702615,0,0,6.5702615,-3518.5656,-2700.3643)" />
  <!-- Half note head (open, from half-note-head.svg, repositioned to match stem base) -->
  <path d="m 49.890262,624.02533 c -20.902956,0 -25.360939,-17.03938 -25.360939,-22.78523 0,-31.106778 106.496157,-85.593172 136.315077,-85.593172 15.25683,0 25.36093,8.915941 25.36093,22.785216 0,31.701178 -107.188967,85.593186 -136.315068,85.593186 M 137.36571,485.828 c -61.51947,0 -135.0272087,51.41534 -135.0272087,110.35973 0,27.24319 19.6151037,57.65651 71.0304487,57.65651 65.87965,0 135.02721,-53.89201 135.02721,-109.66626 0,-37.44702 -31.70117,-58.34998 -71.03045,-58.34998" />
</svg>
