<?xml version="1.0" encoding="UTF-8" standalone="no"?>
<svg
   width="12.361273mm"
   height="38.513931mm"
   viewBox="0 0 175.19914 545.86675"
   version="1.2"
   id="svg14"
   sodipodi:docname="Untitled score-1.svg"
   xmlns:inkscape="http://www.inkscape.org/namespaces/inkscape"
   xmlns:sodipodi="http://sodipodi.sourceforge.net/DTD/sodipodi-0.dtd"
   xmlns="http://www.w3.org/2000/svg"
   xmlns:svg="http://www.w3.org/2000/svg"
   xmlns:rdf="http://www.w3.org/1999/02/22-rdf-syntax-ns#"
   xmlns:cc="http://creativecommons.org/ns#"
   xmlns:dc="http://purl.org/dc/elements/1.1/">
  <defs
     id="defs14" />
  <sodipodi:namedview
     id="namedview14"
     pagecolor="#505050"
     bordercolor="#eeeeee"
     borderopacity="1"
     inkscape:showpageshadow="0"
     inkscape:pageopacity="0"
     inkscape:pagecheckerboard="0"
     inkscape:deskcolor="#505050"
     inkscape:document-units="mm">
    <inkscape:page
       x="0"
       y="0"
       width="175.19914"
       height="545.86676"
       id="page2"
       margin="0"
       bleed="0" />
  </sodipodi:namedview>
  <title
     id="title1">Untitled score</title>
  <desc
     id="desc1">Generated by MuseScore Studio 4.6.3</desc>
  <path
     class="Rest"
     d="m 171.47149,422.73834 c -0.69893,-0.69968 -2.21329,-2.21351 -4.42658,-5.1255 L 81.309169,311.72415 c -0.81543,-0.81542 -1.51436,-3.02871 -1.51436,-4.54306 0,-2.21329 0.69893,-5.12551 1.51436,-6.63986 L 157.25986,185.68344 c 0.81542,-1.51488 1.51435,-3.72764 1.51435,-5.24252 v -6.63964 c 0,-2.21351 -0.69893,-4.54329 -2.21329,-5.94115 L 35.762049,4.5432102 c 0,0 -2.91222,-4.54321002937787 -7.45528,-4.54321002937787 -2.21329,0 -3.72764,0.81556999937787 -5.94093,2.32978002937787 -3.02871,2.21343 -3.72764,5.1255 -3.72764,7.45528 0,4.4268698 2.21328,8.1545198 2.21328,8.1545198 l 56.73004,77.581225 c 1.39787,2.21344 2.21329,5.125515 2.21329,8.853155 0,3.02901 -0.81542,6.75665 -2.21329,8.96941 L 2.2132795,228.2017 c -0.69894,1.51435 -1.51436004,4.42657 -1.51436004,5.94092 v 6.75635 c 0,2.21329 0.81542004,4.42658 2.32978004,5.94093 L 86.434669,350.51492 c -2.91222,-0.81542 -9.66857,-2.32978 -18.6382,-2.32978 -37.97535,0 -67.796479538187,31.33564 -67.796479538187,69.4277 0,10.36727 2.213290038187,20.85097 8.154220038187,29.00548 15.7259795,23.88005 71.6405995,94.70524 71.6405995,94.70524 0,0 3.72764,4.54321 8.96964,4.54321 1.39786,0 2.91222,0 4.42657,-1.51413 3.72764,-3.02908 5.242,-5.94115 5.242,-8.97016 0,-3.02841 -1.51436,-5.24185 -2.21329,-6.75605 -2.32978,-3.72764 -26.09349,-46.94513 -26.09349,-46.94513 0,0 -5.24199,-10.48362 -5.24199,-23.88005 0,-23.87998 17.82278,-43.2175 41.702981,-43.2175 9.66857,0 17.93928,3.02909 23.8802,6.75673 l 29.1222,18.63821 c 0,0 2.91222,1.39786 5.94093,1.39786 2.91222,0 5.242,-0.69968 7.45528,-3.72764 1.51436,-2.91275 2.21329,-4.42695 2.21329,-6.64039 0,-2.21276 -0.69893,-3.72764 -2.21329,-5.9404 l -1.51435,-2.32978"
     id="path14"
     style="stroke-width:7.45528" />
  <metadata
     id="metadata14">
    <rdf:RDF>
      <cc:Work
         rdf:about="">
        <dc:title>Untitled score</dc:title>
      </cc:Work>
    </rdf:RDF>
  </metadata>
</svg>
