<svg xmlns="http://www.w3.org/2000/svg" viewBox="0 0 280 656.96377" fill="currentColor">
  <!-- Stem -->
  <polyline fill="none" stroke="currentColor" stroke-width="2.48" stroke-linejoin="bevel" points="566.529,493.83 566.529,410.998" transform="matrix(6.5702615,0,0,6.5702615,-3518.5656,-2700.3643)" />
  <!-- Filled note head -->
  <path d="m 4.1112967e-6,597.69329 c 0,28.00573 20.1641398887033,59.27046 73.0184778887033,59.27046 67.723428,0 138.806748,-55.40058 138.806748,-112.73597 0,-38.49515 -32.58849,-59.98307 -73.01847,-59.98307 C 75.564912,484.24471 4.1112967e-6,537.71008 4.1112967e-6,597.69329" />
  <!-- First flag (filled) -->
  <path d="M 203,0 C 210,80 260,140 270,220 C 250,180 220,160 203,120 Z" />
  <!-- Second flag (filled) -->
  <path d="M 203,100 C 210,180 260,240 270,320 C 250,280 220,260 203,220 Z" />
</svg>
