<?xml version="1.0" encoding="UTF-8" standalone="no"?>
<svg
   width="11.254492mm"
   height="25.956451mm"
   viewBox="0 0 159.51249 367.88672"
   version="1.2"
   id="svg13"
   sodipodi:docname="three-four_time.svg"
   xmlns:inkscape="http://www.inkscape.org/namespaces/inkscape"
   xmlns:sodipodi="http://sodipodi.sourceforge.net/DTD/sodipodi-0.dtd"
   xmlns="http://www.w3.org/2000/svg"
   xmlns:svg="http://www.w3.org/2000/svg"
   xmlns:rdf="http://www.w3.org/1999/02/22-rdf-syntax-ns#"
   xmlns:cc="http://creativecommons.org/ns#"
   xmlns:dc="http://purl.org/dc/elements/1.1/">
  <defs
     id="defs13" />
  <sodipodi:namedview
     id="namedview13"
     pagecolor="#505050"
     bordercolor="#eeeeee"
     borderopacity="1"
     inkscape:showpageshadow="0"
     inkscape:pageopacity="0"
     inkscape:pagecheckerboard="0"
     inkscape:deskcolor="#505050"
     inkscape:document-units="mm">
    <inkscape:page
       x="8.7016474e-15"
       y="0"
       width="159.51248"
       height="367.88672"
       id="page2"
       margin="0"
       bleed="0" />
  </sodipodi:namedview>
  <title
     id="title1">Untitled score</title>
  <desc
     id="desc1">Generated by MuseScore Studio 4.6.3</desc>
  <path
     class="TimeSig"
     d="M 110.5083,85.026974 C 140.32592,73.437706 142.18952,54.044611 142.18952,47.34737 V 45.483769 C 142.18952,42.163967 141.08327,-2.9033874e-7 76.96348,-2.9033874e-7 12.844037,-2.9033874e-7 14.707638,45.483769 14.707638,45.483769 h 0.349426 l -0.349426,0.757013 c 0,13.39463 10.83218,23.877386 24.226812,23.877386 13.394819,0 23.877574,-10.482756 23.877574,-23.877386 0,-10.832366 -8.211755,-21.25662 -18.636197,-23.469797 l 1.106513,-1.106626 c 5.183328,-3.727202 12.288119,-5.590802 19.393285,-5.590802 15.607657,0 32.380066,9.318004 32.380066,29.410212 0,23.469648 -17.471259,26.847425 -21.955812,27.604512 -4.484215,0.757089 -25.333061,2.213026 -29.817539,2.213026 -4.484289,0 -4.833715,5.241378 -4.833715,5.241378 v 7.454404 c 0,0 0.698851,4.076626 4.833715,4.484289 6.348078,0.349425 14.908733,0.349425 26.847688,2.213027 16.364632,2.21303 24.925663,13.394635 24.925663,39.485245 0,24.98378 -16.772409,31.6812 -32.380066,31.6812 -10.482755,0 -20.150373,-2.97022 -24.227,-5.94041 12.288043,-0.75701 22.363399,-11.53084 22.363399,-23.8772 0,-13.39482 -10.482755,-24.227 -23.877574,-24.227 -13.394632,0 -24.226812,10.83218 -24.226812,24.227 0,30.57459 27.954013,45.89117 55.558789,45.89117 35.757653,0 74.544053,-12.34635 74.544053,-52.93817 0,-27.19685 -18.63602,-38.786126 -35.05919,-43.969266 h 0.75701"
     id="path10"
     style="stroke-width:3.7272" />
  <path
     class="TimeSig"
     d="m 72.272847,322.81072 v 27.54662 H 41.348645 c -2.620614,0 -5.24119,2.271 -5.24119,5.24119 v 7.10517 c 0,2.96984 2.620576,5.18302 5.24119,5.18302 H 154.27126 c 3.02836,0 5.24123,-2.21318 5.24123,-5.18302 v -7.10517 c 0,-2.97019 -2.21287,-5.24119 -5.24123,-5.24119 h -33.54479 v -27.54662 h 33.54479 c 3.02836,0 5.24123,-2.6206 5.24123,-5.5908 v -7.1049 c 0,-2.62068 -2.21287,-5.18314 -5.24123,-5.18314 h -33.54479 v -59.2858 c 0,-2.21303 -1.10659,-4.07663 -2.56245,-4.83371 l -4.48418,-2.27127 c -0.75735,-0.34942 -1.10663,-0.34942 -1.86361,-0.34942 -1.51435,0 -2.97022,0 -4.13497,1.10651 l -33.894388,30.92413 c -1.106249,1.16475 -1.514025,2.62068 -1.514025,4.13486 v 30.5747 h -43.21232 c 0,0 41.756495,-44.72642 85.725563,-103.66298 1.51432,-1.86361 1.8636,-3.7272 1.8636,-5.18303 0,-1.8636 -0.75701,-3.37763 -1.10625,-3.7272 l -8.21176,-8.21142 c -1.10625,-0.75701 -2.21287,-1.51436 -3.7272,-1.51436 -2.21287,0 -52.588218,0 -55.558444,0 -2.620577,0 -4.484178,2.27137 -4.83379,4.48455 0,0 -1.863601,27.60443 -11.531031,57.77155 -9.725666,30.22528 -20.907272,48.86129 -30.5747017,62.60535 0,0 -1.10651299512689,1.86359 -1.10651299512689,4.13486 0,0.75709 0,1.45612 0.34942510512689,2.2131 1.10651299,2.62061 3.72720179,6.69743 3.72720179,6.69743 0,0 0.7570878,2.27099 4.0766278,2.27099 h 64.119592"
     id="path11"
     style="stroke-width:3.7272" />
  <metadata
     id="metadata13">
    <rdf:RDF>
      <cc:Work
         rdf:about="">
        <dc:title>Untitled score</dc:title>
      </cc:Work>
    </rdf:RDF>
  </metadata>
</svg>
