<?xml version="1.0" encoding="UTF-8" standalone="no"?>
<svg
   width="11.838655mm"
   height="13.221056mm"
   viewBox="0 0 167.7909 187.38386"
   version="1.2"
   id="svg11"
   sodipodi:docname="treble-staff.svg"
   inkscape:version="1.4.2 (f4327f4, 2025-05-13)"
   xmlns:inkscape="http://www.inkscape.org/namespaces/inkscape"
   xmlns:sodipodi="http://sodipodi.sourceforge.net/DTD/sodipodi-0.dtd"
   xmlns="http://www.w3.org/2000/svg"
   xmlns:svg="http://www.w3.org/2000/svg"
   xmlns:rdf="http://www.w3.org/1999/02/22-rdf-syntax-ns#"
   xmlns:cc="http://creativecommons.org/ns#"
   xmlns:dc="http://purl.org/dc/elements/1.1/">
  <defs
     id="defs11" />
  <sodipodi:namedview
     id="namedview11"
     pagecolor="#505050"
     bordercolor="#eeeeee"
     borderopacity="1"
     inkscape:showpageshadow="0"
     inkscape:pageopacity="0"
     inkscape:pagecheckerboard="0"
     inkscape:deskcolor="#505050"
     inkscape:document-units="mm"
     inkscape:zoom="0.47067363"
     inkscape:cx="496.09748"
     inkscape:cy="196.52684"
     inkscape:window-width="1920"
     inkscape:window-height="986"
     inkscape:window-x="-11"
     inkscape:window-y="-11"
     inkscape:window-maximized="1"
     inkscape:current-layer="svg11">
    <inkscape:page
       x="0"
       y="0"
       width="167.79089"
       height="187.38387"
       id="page2"
       margin="0"
       bleed="0" />
  </sodipodi:namedview>
  <title
     id="title1">Untitled score</title>
  <desc
     id="desc1">Generated by MuseScore Studio 4.6.3</desc>
  <path
     class="TimeSig"
     d="m 76.023623,141.78953 v 27.8634 h -32.52911 c -2.75661,0 -5.51319,2.2971 -5.51319,5.3014 v 7.1869 c 0,3.004 2.75658,5.2426 5.51319,5.2426 H 162.27763 c 3.18551,0 5.51323,-2.2386 5.51323,-5.2426 v -7.1869 c 0,-3.0043 -2.32772,-5.3014 -5.51323,-5.3014 H 126.9919 v -27.8634 h 35.28573 c 3.18551,0 5.51323,-2.6507 5.51323,-5.655 v -7.1866 c 0,-2.6509 -2.32772,-5.2428 -5.51323,-5.2428 H 126.9919 V 63.737698 c 0,-2.23847 -1.16402,-4.1235 -2.69544,-4.88929 l -4.7169,-2.29738 c -0.79665,-0.35344 -1.16405,-0.35344 -1.96031,-0.35344 -1.59296,0 -3.12438,0 -4.34958,1.11924 l -35.653447,31.27971 c -1.16366,1.1781 -1.5926,2.6508 -1.5926,4.1824 v 30.926192 h -45.45495 c 0,0 43.92357,-45.240692 90.174557,-104.854852 1.59291,-1.88503 1.96031,-3.77006 1.96031,-5.24262 0,-1.88503 -0.7963,-3.41646 -1.16366,-3.7700603 l -8.63793,-8.30583 C 111.73829,0.76605762 110.57423,-2.3768473e-6 108.98132,-2.3768473e-6 c -2.32772,0 -55.317457,0 -58.441827,0 -2.75658,0 -4.7169,2.2974900768473 -5.08466,4.5361100768473 0,0 -1.96032,27.9218303 -12.12947,58.4358003 -10.23041,30.57283 -21.99232,49.423122 -32.1614699,63.325122 0,0 -1.16393994023,1.8851 -1.16393994023,4.1824 0,0.7658 0,1.4729 0.36756000023,2.2386 1.16393994,2.6507 3.92063994,6.7744 3.92063994,6.7744 0,0 0.79638,2.2971 4.2882,2.2971 H 76.023623"
     id="path10"
     style="stroke-width:3.84461" />
  <metadata
     id="metadata11">
    <rdf:RDF>
      <cc:Work
         rdf:about="">
        <dc:title>Untitled score</dc:title>
      </cc:Work>
    </rdf:RDF>
  </metadata>
</svg>
