<?xml version="1.0" encoding="UTF-8" standalone="no"?>
<svg
   width="400mm"
   height="100mm"
   viewBox="0 0 5669.2556 1417.3139"
   version="1.2"
   id="svg11"
   sodipodi:docname="treble-staff.svg"
   inkscape:version="1.4.2 (f4327f4, 2025-05-13)"
   xmlns:inkscape="http://www.inkscape.org/namespaces/inkscape"
   xmlns:sodipodi="http://sodipodi.sourceforge.net/DTD/sodipodi-0.dtd"
   xmlns="http://www.w3.org/2000/svg"
   xmlns:svg="http://www.w3.org/2000/svg"
   xmlns:rdf="http://www.w3.org/1999/02/22-rdf-syntax-ns#"
   xmlns:cc="http://creativecommons.org/ns#"
   xmlns:dc="http://purl.org/dc/elements/1.1/">
  <defs
     id="defs11" />
  <sodipodi:namedview
     id="namedview11"
     pagecolor="#505050"
     bordercolor="#eeeeee"
     borderopacity="1"
     inkscape:showpageshadow="0"
     inkscape:pageopacity="0"
     inkscape:pagecheckerboard="0"
     inkscape:deskcolor="#505050"
     inkscape:document-units="mm"
     inkscape:zoom="0.47067363"
     inkscape:cx="496.09748"
     inkscape:cy="196.52684"
     inkscape:window-width="1920"
     inkscape:window-height="986"
     inkscape:window-x="-11"
     inkscape:window-y="-11"
     inkscape:window-maximized="1"
     inkscape:current-layer="svg11" />
  <title
     id="title1">Untitled score</title>
  <desc
     id="desc1">Generated by MuseScore Studio 4.6.3</desc>
  <polyline
     class="StaffLines"
     fill="none"
     stroke="#000000"
     stroke-width="2.73"
     stroke-linejoin="bevel"
     points="336.598,634.198 2764.6,634.198"
     id="polyline1"
     transform="matrix(2.0998166,0,0,3.8004601,-386.13059,-1890.5881)" />
  <polyline
     class="StaffLines"
     fill="none"
     stroke="#000000"
     stroke-width="2.73"
     stroke-linejoin="bevel"
     points="336.598,658.998 2764.6,658.998"
     id="polyline2"
     transform="matrix(2.0998166,0,0,3.8004601,-386.13059,-1890.5881)" />
  <polyline
     class="StaffLines"
     fill="none"
     stroke="#000000"
     stroke-width="2.73"
     stroke-linejoin="bevel"
     points="336.598,683.798 2764.6,683.798"
     id="polyline3"
     transform="matrix(2.0998166,0,0,3.8004601,-386.13059,-1890.5881)" />
  <polyline
     class="StaffLines"
     fill="none"
     stroke="#000000"
     stroke-width="2.73"
     stroke-linejoin="bevel"
     points="336.598,708.598 2764.6,708.598"
     id="polyline4"
     transform="matrix(2.0998166,0,0,3.8004601,-386.13059,-1890.5881)" />
  <polyline
     class="StaffLines"
     fill="none"
     stroke="#000000"
     stroke-width="2.73"
     stroke-linejoin="bevel"
     points="336.598,733.398 2764.6,733.398"
     id="polyline5"
     transform="matrix(2.0998166,0,0,3.8004601,-386.13059,-1890.5881)" />
  <path
     class="Clef"
     d="m 558.84215,880.05015 c -7.84127,1.5314 -15.25365,2.2971 -22.72752,2.2971 -56.05257,0 -103.89678,-37.7005 -103.89678,-94.6637 0,-45.94772 33.69305,-87.06471 68.24365,-115.75256 6.61608,-5.65508 12.92597,-10.89774 18.80693,-16.55282 3.49169,20.32288 6.24831,38.05381 9.00493,53.5465 -35.71427,10.19082 -59.97321,46.35999 -59.97321,81.82208 0,26.3904 21.5635,62.5594 52.92859,62.5594 3.12398,0 6.67722,-1.5314 6.67722,-4.8894 0,-3.4165 -3.92064,-5.3015 -8.63753,-8.3058 -15.31519,-9.0717 -23.95276,-18.8503 -23.95276,-37.3471 0,-22.97382 17.64286,-41.47085 40.79896,-46.71347 l 22.72752,123.99977 M 524.35272,492.50002 c 3.55324,-15.08022 21.5635,-54.66581 41.96334,-54.66581 5.88096,0 15.25361,18.43785 15.25361,44.47462 0,39.23233 -30.13989,68.62707 -57.21695,94.2514 -2.32772,-15.08022 -4.28803,-29.74798 -4.28803,-45.59392 0,-13.96092 1.16405,-26.80283 4.28803,-38.46629 m 90.17465,317.80393 c 0,26.8027 -11.3942,54.3123 -39.20637,65.2693 -8.20868,-45.2409 -18.80653,-105.20836 -21.5635,-121.82037 35.28573,0 60.76987,23.03288 60.76987,56.55107 m -172.50801,185.4986 c 0,24.91775 19.9709,57.72895 72.89949,57.72895 18.43917,0 34.55061,-4.5357 48.64024,-12.8419 21.1961,-14.3142 26.64815,-39.232 26.64815,-62.97165 0,-14.6678 -2.32768,-31.633 -6.24831,-53.134 -1.16406,-7.5401 -3.55328,-18.8503 -5.88096,-33.5773 38.40972,-12.0758 67.01819,-50.5421 67.01819,-89.3621 0,-56.90434 -41.96299,-95.37062 -99.17994,-95.37062 -3.92063,-22.62034 -7.84127,-44.88743 -11.39419,-65.97599 41.59562,-41.88305 70.20374,-89.00875 70.20374,-148.91723 0,-34.34293 -10.96525,-62.20593 -17.27514,-75.81207 -9.37266,-19.20467 -20.76721,-32.39987 -27.81218,-32.39987 -2.75662,0 -14.88589,4.53539 -27.81185,19.20467 -25.11674,28.68637 -32.16136,76.93139 -32.16136,108.56444 0,20.38168 1.96032,38.87871 8.63754,81.11504 -0.4289,0.35345 -20.82838,20.32285 -29.03737,26.74399 -35.71428,32.04548 -85.08999,77.63945 -85.08999,153.09956 0,70.45308 63.8942,125.88458 136.85491,125.88458 11.33298,0 21.93087,-1.1193 30.93616,-2.6507 7.47355,36.2276 11.76191,62.618 11.76191,82.5876 0,39.23235 -20.7672,59.96765 -60.34093,59.96765 -9.43423,0 -17.64286,-1.885 -18.43952,-1.885 -0.36756,-0.4125 -1.16366,-0.7661 -1.16366,-1.1194 0,-0.7657 0.79626,-1.1781 1.96032,-1.5317 18.43912,-2.6508 36.8171,-17.731 36.8171,-41.82385 0,-20.3821 -16.05026,-41.8831 -45.45503,-41.8831 -27.44446,0 -45.08732,21.501 -45.08732,46.36"
     id="path8"
     style="stroke-width:3.84461" />
  <path
     class="TimeSig"
     d="m 819.15155,661.79897 v 27.86334 h -32.52911 c -2.75661,0 -5.51319,2.29711 -5.51319,5.30145 v 7.18686 c 0,3.004 2.75658,5.24262 5.51319,5.24262 h 118.78312 c 3.18551,0 5.51323,-2.23862 5.51323,-5.24262 v -7.18686 c 0,-3.00434 -2.32772,-5.30145 -5.51323,-5.30145 h -35.28573 v -27.86334 h 35.28573 c 3.18551,0 5.51323,-2.65075 5.51323,-5.65509 v -7.18659 c 0,-2.65082 -2.32772,-5.24274 -5.51323,-5.24274 h -35.28573 v -59.96746 c 0,-2.23847 -1.16402,-4.12349 -2.69544,-4.88929 l -4.7169,-2.29738 c -0.79665,-0.35344 -1.16405,-0.35344 -1.96031,-0.35344 -1.59296,0 -3.12438,0 -4.34958,1.11924 l -35.65345,31.27968 c -1.16366,1.17815 -1.5926,2.65082 -1.5926,4.18241 v 30.92624 H 773.6966 c 0,0 43.92357,-45.24067 90.17456,-104.85488 1.59291,-1.88503 1.96031,-3.77006 1.96031,-5.24262 0,-1.88503 -0.7963,-3.41646 -1.16366,-3.77006 l -8.63793,-8.30583 c -1.16366,-0.76571 -2.32772,-1.53177 -3.92063,-1.53177 -2.32772,0 -55.31746,0 -58.44183,0 -2.75658,0 -4.7169,2.29749 -5.08466,4.53611 0,0 -1.96032,27.92183 -12.12947,58.4358 -10.23041,30.5728 -21.99232,49.42308 -32.16147,63.32517 0,0 -1.16394,1.88503 -1.16394,4.1824 0,0.7658 0,1.47287 0.36756,2.23855 1.16394,2.65075 3.92064,6.77443 3.92064,6.77443 0,0 0.79638,2.29712 4.2882,2.29712 h 67.44727"
     id="path9"
     style="stroke-width:3.84461" />
  <path
     class="TimeSig"
     d="m 819.15155,850.30175 v 27.8634 h -32.52911 c -2.75661,0 -5.51319,2.2971 -5.51319,5.3014 v 7.1869 c 0,3.004 2.75658,5.2426 5.51319,5.2426 h 118.78312 c 3.18551,0 5.51323,-2.2386 5.51323,-5.2426 v -7.1869 c 0,-3.0043 -2.32772,-5.3014 -5.51323,-5.3014 h -35.28573 v -27.8634 h 35.28573 c 3.18551,0 5.51323,-2.6507 5.51323,-5.655 v -7.1866 c 0,-2.6509 -2.32772,-5.2428 -5.51323,-5.2428 h -35.28573 v -59.96744 c 0,-2.23847 -1.16402,-4.1235 -2.69544,-4.88929 l -4.7169,-2.29738 c -0.79665,-0.35344 -1.16405,-0.35344 -1.96031,-0.35344 -1.59296,0 -3.12438,0 -4.34958,1.11924 l -35.65345,31.27971 c -1.16366,1.1781 -1.5926,2.6508 -1.5926,4.1824 v 30.9262 H 773.6966 c 0,0 43.92357,-45.2407 90.17456,-104.85486 1.59291,-1.88503 1.96031,-3.77006 1.96031,-5.24262 0,-1.88503 -0.7963,-3.41646 -1.16366,-3.77006 l -8.63793,-8.30583 c -1.16366,-0.76571 -2.32772,-1.53177 -3.92063,-1.53177 -2.32772,0 -55.31746,0 -58.44183,0 -2.75658,0 -4.7169,2.29749 -5.08466,4.53611 0,0 -1.96032,27.92183 -12.12947,58.4358 -10.23041,30.57283 -21.99232,49.42313 -32.16147,63.32513 0,0 -1.16394,1.8851 -1.16394,4.1824 0,0.7658 0,1.4729 0.36756,2.2386 1.16394,2.6507 3.92064,6.7744 3.92064,6.7744 0,0 0.79638,2.2971 4.2882,2.2971 h 67.44727"
     id="path10"
     style="stroke-width:3.84461" />
  <metadata
     id="metadata11">
    <rdf:RDF>
      <cc:Work
         rdf:about="">
        <dc:title>Untitled score</dc:title>
      </cc:Work>
    </rdf:RDF>
  </metadata>
</svg>
