<?xml version="1.0" encoding="UTF-8" standalone="no"?>
<svg
   width="30.201765mm"
   height="80.687386mm"
   viewBox="0 0 428.05381 1143.5935"
   version="1.2"
   id="svg11"
   sodipodi:docname="treble-staff.svg"
   inkscape:version="1.4.2 (f4327f4, 2025-05-13)"
   inkscape:export-filename="treble-clef.png"
   inkscape:export-xdpi="96"
   inkscape:export-ydpi="96"
   xmlns:inkscape="http://www.inkscape.org/namespaces/inkscape"
   xmlns:sodipodi="http://sodipodi.sourceforge.net/DTD/sodipodi-0.dtd"
   xmlns="http://www.w3.org/2000/svg"
   xmlns:svg="http://www.w3.org/2000/svg"
   xmlns:rdf="http://www.w3.org/1999/02/22-rdf-syntax-ns#"
   xmlns:cc="http://creativecommons.org/ns#"
   xmlns:dc="http://purl.org/dc/elements/1.1/">
  <defs
     id="defs11" />
  <sodipodi:namedview
     id="namedview11"
     pagecolor="#505050"
     bordercolor="#eeeeee"
     borderopacity="1"
     inkscape:showpageshadow="0"
     inkscape:pageopacity="0"
     inkscape:pagecheckerboard="0"
     inkscape:deskcolor="#505050"
     inkscape:document-units="mm"
     inkscape:zoom="0.47067363"
     inkscape:cx="496.09748"
     inkscape:cy="196.52684"
     inkscape:window-width="1920"
     inkscape:window-height="986"
     inkscape:window-x="-11"
     inkscape:window-y="-11"
     inkscape:window-maximized="1"
     inkscape:current-layer="svg11">
    <inkscape:page
       x="0"
       y="0"
       width="428.0538"
       height="1143.5935"
       id="page2"
       margin="0"
       bleed="0" />
  </sodipodi:namedview>
  <title
     id="title1">Untitled score</title>
  <desc
     id="desc1">Generated by MuseScore Studio 4.6.3</desc>
  <path
     class="Clef"
     d="m 280.9103,847.64603 c -13.37667,2.61246 -26.02169,3.91869 -38.77161,3.91869 -95.62189,0 -177.24089,-64.3145 -177.24089,-161.48986 0,-78.38371 57.47808,-148.52651 116.41906,-197.46604 11.28659,-9.64719 22.05083,-18.59081 32.08335,-28.23799 5.95659,34.66945 10.6592,64.91722 15.3618,91.3467 -60.92612,17.38485 -102.31024,79.08701 -102.31024,139.58294 0,45.02023 36.78588,106.7221 90.2926,106.7221 5.3293,0 11.39088,-2.61246 11.39088,-8.34098 0,-5.82832 -6.68834,-9.044 -14.73504,-14.16914 -26.12668,-15.4757 -40.86179,-32.15733 -40.86179,-63.71162 0,-39.19179 30.09753,-70.74647 69.60027,-79.69002 L 280.9103,847.64603 M 222.07367,186.51172 c 6.06158,-25.72583 36.78587,-93.256165 71.58662,-93.256165 10.03252,0 26.02162,31.453715 26.02162,75.870685 0,66.9277 -51.41661,117.07314 -97.60824,160.78651 -3.97094,-25.72583 -7.31509,-50.74804 -7.31509,-77.78014 0,-23.81639 1.98579,-45.72382 7.31509,-65.62089 m 153.83185,542.15201 c 0,45.72359 -19.43773,92.65311 -66.88341,111.34501 -14.00346,-77.17792 -32.08267,-179.47835 -36.78588,-207.81731 60.19507,0 103.66929,39.29253 103.66929,96.4723 M 81.61851,1045.1118 c 0,42.508 34.06902,98.4817 124.36161,98.4817 31.45598,0 58.94101,-7.7376 82.97696,-21.9074 36.15912,-24.4191 45.45994,-66.9272 45.45994,-107.4254 0,-25.02231 -3.97086,-53.96381 -10.65919,-90.64301 -1.98581,-12.8629 -6.06165,-32.1573 -10.03252,-57.2806 65.52439,-20.60051 114.3285,-86.22142 114.3285,-152.44571 0,-97.07496 -71.58602,-162.69583 -169.19427,-162.69583 -6.68833,-38.58877 -13.37668,-76.57492 -19.43772,-112.55058 70.95932,-71.44965 119.76284,-151.8429 119.76284,-254.04271 0,-58.58672 -18.70598,-106.119105 -29.47023,-129.330265 C 313.72531,22.510125 294.28698,4.8996933e-6 282.26874,4.8996933e-6 277.56613,4.8996933e-6 256.87442,7.7370749 234.8236,32.761875 191.97614,81.698885 179.9585,164.00162 179.9585,217.96546 c 0,34.76977 3.34417,66.32445 14.73506,138.37677 -0.73168,0.60296 -35.53181,34.66941 -49.53579,45.62344 C 84.23161,456.63309 -9.4588256e-6,534.41332 -9.4588256e-6,663.14316 -9.4588256e-6,783.33135 108.99918,877.89379 233.46522,877.89379 c 19.3333,0 37.41258,-1.9095 52.775,-4.522 12.74937,61.8019 20.06502,106.8221 20.06502,140.88891 0,66.9277 -35.42744,102.3008 -102.93755,102.3008 -16.09416,0 -30.09752,-3.2157 -31.45657,-3.2157 -0.62703,-0.7037 -1.98513,-1.3069 -1.98513,-1.9096 0,-1.3063 1.35837,-2.0098 3.34418,-2.613 31.45589,-4.5221 62.80748,-30.2479 62.80748,-71.3487 0,-34.7705 -27.38066,-71.44971 -77.54321,-71.44971 -46.81839,0 -76.91593,36.67921 -76.91593,79.08701"
     id="path8"
     style="stroke-width:6.55864" />
  <metadata
     id="metadata11">
    <rdf:RDF>
      <cc:Work
         rdf:about="">
        <dc:title>Untitled score</dc:title>
      </cc:Work>
    </rdf:RDF>
  </metadata>
</svg>
