<?xml version="1.0" encoding="UTF-8" standalone="no"?>
<svg
   width="11.303342mm"
   height="26.391975mm"
   viewBox="0 0 160.20485 374.0595"
   version="1.2"
   id="svg15"
   sodipodi:docname="two-four_time.svg"
   xmlns:inkscape="http://www.inkscape.org/namespaces/inkscape"
   xmlns:sodipodi="http://sodipodi.sourceforge.net/DTD/sodipodi-0.dtd"
   xmlns="http://www.w3.org/2000/svg"
   xmlns:svg="http://www.w3.org/2000/svg"
   xmlns:rdf="http://www.w3.org/1999/02/22-rdf-syntax-ns#"
   xmlns:cc="http://creativecommons.org/ns#"
   xmlns:dc="http://purl.org/dc/elements/1.1/">
  <defs
     id="defs15" />
  <sodipodi:namedview
     id="namedview15"
     pagecolor="#505050"
     bordercolor="#eeeeee"
     borderopacity="1"
     inkscape:showpageshadow="0"
     inkscape:pageopacity="0"
     inkscape:pagecheckerboard="0"
     inkscape:deskcolor="#505050"
     inkscape:document-units="mm">
    <inkscape:page
       x="0"
       y="0"
       width="160.20485"
       height="374.05951"
       id="page2"
       margin="0"
       bleed="0" />
  </sodipodi:namedview>
  <title
     id="title1">Untitled score</title>
  <desc
     id="desc1">Generated by MuseScore Studio 4.6.3</desc>
  <path
     class="TimeSig"
     d="m 134.76157,106.33537 c -2.98274,8.18864 -10.4695,35.15275 -28.83565,35.15275 -24.331953,0 -29.595898,-14.9736 -49.775313,-14.9736 -2.982741,0 -6.024236,0.40943 -9.767615,1.11132 0,0 9.358448,-14.21315 49.073094,-26.55461 C 135.11266,88.729778 145.23141,69.252514 145.23141,46.792239 145.23141,31.058423 138.15416,3.6926851e-8 81.593967,3.6926851e-8 25.092334,3.6926851e-8 14.56408,34.041165 14.56408,51.295916 c 0,15.324533 12.750886,27.665985 28.075344,27.665985 15.382873,0 27.724401,-12.341452 27.724401,-27.665985 0,-10.469876 -7.486757,-22.109182 -17.195959,-25.85256 -1.169806,-0.350943 -2.632327,-2.222783 -2.632327,-4.094472 0,-2.281235 1.871689,-4.854808 8.598149,-6.726498 1.87169,-0.76026 7.136006,-1.871689 12.751073,-1.871689 21.290477,0 25.443022,13.101826 25.443022,32.169852 0,43.809229 -52.05622,53.167684 -73.756197,85.746971 0,0 -11.230136,15.6754 -11.230136,33.28086 0,17.60551 9.007505,18.7169 13.452768,18.7169 6.0245,0 12.399943,-4.85478 12.399943,-11.58123 0,-1.5206 -0.409431,-2.98274 -1.169806,-4.85443 -2.22263,-5.26432 -2.983005,-9.35844 -2.983005,-12.39994 0,-1.11143 0,-2.22283 0.409433,-3.33421 0.350942,-2.28086 3.333947,-6.02425 12.341377,-6.02425 10.820969,0 14.973517,12.7507 21.699976,22.46028 6.72646,9.76762 17.196343,15.73378 29.186737,15.73378 11.990427,0 28.075337,-8.59815 34.860227,-22.46027 6.72649,-13.86209 15.3243,-41.93763 15.3243,-51.99795 0,-4.91319 -2.98274,-7.13583 -6.37537,-7.13583 -2.63199,0 -5.20556,1.52076 -6.72646,5.26414"
     id="path11"
     style="stroke-width:3.74337" />
  <path
     class="TimeSig"
     d="m 72.586536,328.7879 v 27.66617 H 41.528112 c -2.631988,0 -5.263939,2.28085 -5.263939,5.26393 v 7.13601 c 0,2.98274 2.631951,5.20552 5.263939,5.20552 H 154.94087 c 3.0415,0 5.26398,-2.22278 5.26398,-5.20552 V 361.718 c 0,-2.98308 -2.22248,-5.26393 -5.26398,-5.26393 H 121.25045 V 328.7879 h 33.69042 c 3.0415,0 5.26398,-2.63199 5.26398,-5.61507 v -7.13575 c 0,-2.63206 -2.22248,-5.20563 -5.26398,-5.20563 h -33.69042 v -59.54313 c 0,-2.22264 -1.11137,-4.09432 -2.57356,-4.85469 l -4.50363,-2.28113 c -0.76066,-0.35093 -1.11144,-0.35093 -1.8717,-0.35093 -1.52094,0 -2.98312,0 -4.15293,1.11131 l -34.041497,31.05835 c -1.111052,1.1698 -1.520597,2.63206 -1.520597,4.15281 v 30.70741 H 29.186659 c 0,0 41.937732,-44.92056 86.097651,-104.11293 1.52088,-1.87168 1.87169,-3.74338 1.87169,-5.20552 0,-1.87169 -0.7603,-3.39229 -1.11105,-3.74338 l -8.24741,-8.24706 c -1.11104,-0.76029 -2.22248,-1.52093 -3.74338,-1.52093 -2.22247,0 -52.81647,0 -55.799589,0 -2.63195,0 -4.503639,2.28123 -4.85477,4.50401 0,0 -1.871689,27.72426 -11.581079,58.0223 -9.76788,30.35646 -20.998017,49.07338 -30.7074056,62.87708 0,0 -1.11131626744742,1.87169 -1.11131626744742,4.1528 0,0.76039 0,1.46246 0.35094129744742,2.22271 1.11131627,2.63198 3.74337947,6.72651 3.74337947,6.72651 0,0 0.760374,2.28086 4.0943211,2.28086 h 64.397894"
     id="path12"
     style="stroke-width:3.74337" />
  <metadata
     id="metadata15">
    <rdf:RDF>
      <cc:Work
         rdf:about="">
        <dc:title>Untitled score</dc:title>
      </cc:Work>
    </rdf:RDF>
  </metadata>
</svg>
