<?xml version="1.0" encoding="UTF-8" standalone="no"?>
<svg
   width="14.591007mm"
   height="10.562778mm"
   viewBox="0 0 206.80167 149.70866"
   version="1.2"
   id="svg11"
   sodipodi:docname="whole-note-head.svg"
   xmlns:inkscape="http://www.inkscape.org/namespaces/inkscape"
   xmlns:sodipodi="http://sodipodi.sourceforge.net/DTD/sodipodi-0.dtd"
   xmlns="http://www.w3.org/2000/svg"
   xmlns:svg="http://www.w3.org/2000/svg"
   xmlns:rdf="http://www.w3.org/1999/02/22-rdf-syntax-ns#"
   xmlns:cc="http://creativecommons.org/ns#"
   xmlns:dc="http://purl.org/dc/elements/1.1/">
  <defs
     id="defs11" />
  <sodipodi:namedview
     id="namedview11"
     pagecolor="#505050"
     bordercolor="#eeeeee"
     borderopacity="1"
     inkscape:showpageshadow="0"
     inkscape:pageopacity="0"
     inkscape:pagecheckerboard="0"
     inkscape:deskcolor="#505050"
     inkscape:document-units="mm">
    <inkscape:page
       x="0"
       y="-1.0112207e-13"
       width="206.80167"
       height="149.70865"
       id="page2"
       margin="0"
       bleed="0" />
  </sodipodi:namedview>
  <title
     id="title1">Untitled score</title>
  <desc
     id="desc1">Generated by MuseScore Studio 4.6.3</desc>
  <path
     class="Note"
     d="m 108.12246,131.94774 c -15.508063,0 -26.077508,-4.41835 -33.268453,-18.28021 C 67.663078,99.805663 57.700267,64.284648 57.093649,49.296511 55.967528,34.308378 61.512279,25.471444 74.854007,21.052977 c 6.670903,-2.25244 15.508056,-3.379108 23.825179,-3.379108 15.508114,0 25.557964,3.379108 33.268464,18.367242 7.79707,14.901501 17.76039,50.422511 17.76039,64.284379 0,27.2039 -18.88651,31.62225 -41.58558,31.62225 M 103.70388,-7.2014509e-7 C 27.203897,-7.2014509e-7 5.9965156e-8,38.813483 5.9965156e-8,74.854308 5.9965156e-8,110.89515 27.203897,149.70864 103.70388,149.70864 c 76.50024,0 103.0978,-38.81349 103.0978,-74.854332 C 206.80168,38.813483 180.20412,-7.2014508e-7 103.70388,-7.2014508e-7"
     id="path8"
     style="stroke-width:5.54474" />
  <metadata
     id="metadata11">
    <rdf:RDF>
      <cc:Work
         rdf:about="">
        <dc:title>Untitled score</dc:title>
      </cc:Work>
    </rdf:RDF>
  </metadata>
</svg>
