<svg xmlns="http://www.w3.org/2000/svg" viewBox="0 0 206.80167 149.70866" fill="currentColor">
  <path d="m 108.12246,131.94774 c -15.508063,0 -26.077508,-4.41835 -33.268453,-18.28021 C 67.663078,99.805663 57.700267,64.284648 57.093649,49.296511 55.967528,34.308378 61.512279,25.471444 74.854007,21.052977 c 6.670903,-2.25244 15.508056,-3.379108 23.825179,-3.379108 15.508114,0 25.557964,3.379108 33.268464,18.367242 7.79707,14.901501 17.76039,50.422511 17.76039,64.284379 0,27.2039 -18.88651,31.62225 -41.58558,31.62225 M 103.70388,-7.2014509e-7 C 27.203897,-7.2014509e-7 5.9965156e-8,38.813483 5.9965156e-8,74.854308 5.9965156e-8,110.89515 27.203897,149.70864 103.70388,149.70864 c 76.50024,0 103.0978,-38.81349 103.0978,-74.854332 C 206.80168,38.813483 180.20412,-7.2014508e-7 103.70388,-7.2014508e-7" />
</svg>
