<svg width="32" height="32" viewBox="0 0 32 32" fill="none" xmlns="http://www.w3.org/2000/svg">
<path d="M25.6357 2.5293C26.7402 2.5294 27.6357 3.42481 27.6357 4.5293V10.7607C27.6357 11.8652 26.7402 12.7606 25.6357 12.7607H16.6025V14.2656H23.3281C24.4326 14.2656 25.328 15.1611 25.3281 16.2656V20.4688C25.328 21.5732 24.4326 22.4688 23.3281 22.4688H16.6025V23.9736H20.252C21.3563 23.9739 22.252 24.8692 22.252 25.9736V27.4707C22.2519 28.5751 21.3563 29.4705 20.252 29.4707H16.6025V31H18.4619C18.7379 31.0002 18.9619 31.224 18.9619 31.5C18.9619 31.776 18.7379 31.9998 18.4619 32H13.6416C13.3655 32 13.1416 31.7761 13.1416 31.5C13.1416 31.2239 13.3655 31 13.6416 31H15.3975V29.4707H11.748C10.6437 29.4705 9.74808 28.5751 9.74805 27.4707V25.9736C9.74805 24.8692 10.6437 23.9739 11.748 23.9736H15.3975V22.4688H8.67188C7.56741 22.4688 6.67204 21.5732 6.67188 20.4688V16.2656C6.67196 15.1611 7.56736 14.2656 8.67188 14.2656H15.3975V12.7607H6.36426C5.25982 12.7606 4.36433 11.8652 4.36426 10.7607V4.5293C4.36429 3.42481 5.25979 2.5294 6.36426 2.5293H25.6357ZM12.96 24.5059C11.8555 24.5059 10.9601 25.4014 10.96 26.5059V26.9385C10.9601 28.0429 11.8555 28.9385 12.96 28.9385H15.3975V24.5059H12.96ZM16.6025 28.9385H19.04C20.1445 28.9385 21.0399 28.0429 21.04 26.9385V26.5059C21.0399 25.4014 20.1445 24.5059 19.04 24.5059H16.6025V28.9385ZM9.8291 14.7754C8.72475 14.7757 7.8291 15.671 7.8291 16.7754V19.959C7.8291 21.0634 8.72475 21.9587 9.8291 21.959H15.3975V14.7754H9.8291ZM16.6025 21.959H22.1699C23.2745 21.959 24.1699 21.0636 24.1699 19.959V16.7754C24.1699 15.6708 23.2745 14.7754 22.1699 14.7754H16.6025V21.959ZM7.51758 3.03516C6.41319 3.03537 5.51758 3.93072 5.51758 5.03516V10.252C5.51767 11.3563 6.41325 12.2517 7.51758 12.252H24.4824C25.5868 12.2517 26.4823 11.3563 26.4824 10.252V5.03516C26.4824 3.93072 25.5868 3.03537 24.4824 3.03516H7.51758Z" fill="url(#paint0_linear_14_122)"/>
<defs>
<linearGradient id="paint0_linear_14_122" x1="19.0343" y1="2.96214" x2="2.82509" y2="24.7" gradientUnits="userSpaceOnUse">
<stop offset="0.0961538" stop-color="#7C9CFF"/>
<stop offset="0.514423" stop-color="#FFBA09"/>
<stop offset="1" stop-color="#E400D5"/>
</linearGradient>
</defs>
</svg>
