<svg width="32" height="32" viewBox="0 0 32 32" fill="none" xmlns="http://www.w3.org/2000/svg">
<path d="M16.0005 0.891113C22.2947 0.891285 27.3967 5.99314 27.397 12.2856C27.3969 16.0182 25.6011 19.3305 22.8267 21.4087L25.5435 29.1655L22.5503 27.5786L20.686 30.8647L18.1011 23.4819C17.4201 23.6088 16.7183 23.6792 16.0005 23.6792C15.8013 23.6792 15.6025 23.6737 15.4058 23.6636L11.6938 31.1089L10.7446 27.8579L7.08838 28.813L10.3853 22.1997C6.93373 20.2415 4.60312 16.5366 4.60303 12.2856C4.60327 5.99318 9.70638 0.891359 16.0005 0.891113ZM8.99365 26.9907L11.3364 26.3784L11.9448 28.4624L14.3872 23.563C13.2551 23.4026 12.1768 23.0764 11.1772 22.6089L8.99365 26.9907ZM22.0083 21.9663C21.078 22.5446 20.0587 22.9914 18.9751 23.2837L20.7075 28.23L21.9019 26.1235L23.8198 27.1401L22.0083 21.9663ZM16.0005 2.62842C10.635 2.62845 6.28576 6.97719 6.28564 12.3413C6.28564 17.7055 10.6349 22.0542 16.0005 22.0542C21.3661 22.0542 25.7163 17.7055 25.7163 12.3413C25.7162 6.97718 21.3661 2.62842 16.0005 2.62842ZM17.3062 10.5659H21.5308L18.1128 13.0483L19.4185 17.0659L16.0005 14.5835L12.5825 17.0659L13.8882 13.0483L10.4702 10.5659H14.6948L16.0005 6.54834L17.3062 10.5659Z" fill="url(#paint0_linear_26_332)"/>
<defs>
<linearGradient id="paint0_linear_26_332" x1="14.8592" y1="2.66859" x2="14.8592" y2="34.6632" gradientUnits="userSpaceOnUse">
<stop stop-color="#FF80F7"/>
<stop offset="1" stop-color="#05B5D4"/>
</linearGradient>
</defs>
</svg>
