<svg width="32" height="32" viewBox="0 0 32 32" fill="none" xmlns="http://www.w3.org/2000/svg">
<rect x="0.544312" y="8.38383" width="30.9114" height="15.2323" rx="2" fill="url(#paint0_linear_9_125)"/>
<ellipse cx="27.3771" cy="16" rx="1.06153" ry="1.08798" fill="url(#paint1_linear_9_125)"/>
<ellipse cx="25.254" cy="13.8239" rx="1.06153" ry="1.08798" fill="url(#paint2_linear_9_125)"/>
<ellipse cx="23.1308" cy="16" rx="1.06153" ry="1.08798" fill="url(#paint3_linear_9_125)"/>
<ellipse cx="25.254" cy="17.904" rx="1.06153" ry="1.08798" fill="url(#paint4_linear_9_125)"/>
<path d="M7.55731 12.7361V15.1843H10.1423V16.8161H7.55731V19.2644H5.83368V16.8161H3.24872V15.1843H5.83368V12.7361H7.55731Z" fill="url(#paint5_linear_9_125)"/>
<defs>
<linearGradient id="paint0_linear_9_125" x1="3.34745" y1="10.8237" x2="24.9571" y2="17.1997" gradientUnits="userSpaceOnUse">
<stop stop-color="#5C50EA"/>
<stop offset="1" stop-color="#7D3199"/>
</linearGradient>
<linearGradient id="paint1_linear_9_125" x1="28.2617" y1="15.2228" x2="26.1416" y2="16.5099" gradientUnits="userSpaceOnUse">
<stop stop-color="#7C9CFF"/>
<stop offset="1" stop-color="#4564C5"/>
</linearGradient>
<linearGradient id="paint2_linear_9_125" x1="26.1386" y1="13.0468" x2="24.0185" y2="14.3339" gradientUnits="userSpaceOnUse">
<stop stop-color="#7C9CFF"/>
<stop offset="1" stop-color="#4564C5"/>
</linearGradient>
<linearGradient id="paint3_linear_9_125" x1="24.0154" y1="15.2228" x2="21.8953" y2="16.5099" gradientUnits="userSpaceOnUse">
<stop stop-color="#7C9CFF"/>
<stop offset="1" stop-color="#4564C5"/>
</linearGradient>
<linearGradient id="paint4_linear_9_125" x1="26.1386" y1="17.1269" x2="24.0185" y2="18.414" gradientUnits="userSpaceOnUse">
<stop stop-color="#7C9CFF"/>
<stop offset="1" stop-color="#4564C5"/>
</linearGradient>
<linearGradient id="paint5_linear_9_125" x1="6.6955" y1="12.7361" x2="6.6955" y2="19.2644" gradientUnits="userSpaceOnUse">
<stop stop-color="#7CE9FF"/>
<stop offset="1" stop-color="#A743FF"/>
</linearGradient>
</defs>
</svg>
