<svg width="60" height="60" viewBox="0 0 60 60" fill="none" xmlns="http://www.w3.org/2000/svg">
<g filter="url(#filter0_d_9_125)">
<path d="M53.061 15.7676C54.1654 15.7678 55.061 16.6631 55.061 17.7676V42.2324C55.061 43.3369 54.1654 44.2322 53.061 44.2324H6.93896C5.8344 44.2324 4.93896 43.337 4.93896 42.2324V17.7676C4.93896 16.663 5.8344 15.7676 6.93896 15.7676H53.061ZM8.79541 18.5908C7.69095 18.5908 6.79557 19.4864 6.79541 20.5908V39.4082C6.79541 40.5128 7.69085 41.4082 8.79541 41.4082H51.0991C52.2037 41.4082 53.0991 40.5128 53.0991 39.4082V20.5908C53.099 19.4864 52.2036 18.5908 51.0991 18.5908H8.79541Z" fill="url(#paint0_linear_9_125)"/>
<ellipse cx="48.0676" cy="30.2546" rx="1.98373" ry="2.03312" fill="url(#paint1_linear_9_125)"/>
<ellipse cx="44.0999" cy="26.1881" rx="1.98373" ry="2.03312" fill="url(#paint2_linear_9_125)"/>
<ellipse cx="40.1322" cy="30.2549" rx="1.98373" ry="2.03312" fill="url(#paint3_linear_9_125)"/>
<ellipse cx="44.0999" cy="33.8128" rx="1.98373" ry="2.03312" fill="url(#paint4_linear_9_125)"/>
<path d="M18.0447 23.9008V28.475H22.8757V31.5248H18.0447V36.1H14.824V31.5248H9.99291V28.475H14.824V23.9008H18.0447Z" fill="url(#paint5_linear_9_125)"/>
</g>
<defs>
<filter id="filter0_d_9_125" x="0.938965" y="13.7676" width="58.1221" height="36.4648" filterUnits="userSpaceOnUse" color-interpolation-filters="sRGB">
<feFlood flood-opacity="0" result="BackgroundImageFix"/>
<feColorMatrix in="SourceAlpha" type="matrix" values="0 0 0 0 0 0 0 0 0 0 0 0 0 0 0 0 0 0 127 0" result="hardAlpha"/>
<feOffset dy="2"/>
<feGaussianBlur stdDeviation="2"/>
<feComposite in2="hardAlpha" operator="out"/>
<feColorMatrix type="matrix" values="0 0 0 0 0 0 0 0 0 0 0 0 0 0 0 0 0 0 0.25 0"/>
<feBlend mode="normal" in2="BackgroundImageFix" result="effect1_dropShadow_9_125"/>
<feBlend mode="normal" in="SourceGraphic" in2="effect1_dropShadow_9_125" result="shape"/>
</filter>
<linearGradient id="paint0_linear_9_125" x1="27.4916" y1="17.4419" x2="27.4916" y2="47.5806" gradientUnits="userSpaceOnUse">
<stop stop-color="#FF80F7"/>
<stop offset="1" stop-color="#05B5D4"/>
</linearGradient>
<linearGradient id="paint1_linear_9_125" x1="48.0676" y1="28.2215" x2="48.0676" y2="32.2877" gradientUnits="userSpaceOnUse">
<stop stop-color="#EDDBAE"/>
<stop offset="1" stop-color="#FFBA09"/>
</linearGradient>
<linearGradient id="paint2_linear_9_125" x1="44.0999" y1="24.155" x2="44.0999" y2="28.2212" gradientUnits="userSpaceOnUse">
<stop stop-color="#EDDBAE"/>
<stop offset="1" stop-color="#FFBA09"/>
</linearGradient>
<linearGradient id="paint3_linear_9_125" x1="40.1322" y1="28.2218" x2="40.1322" y2="32.288" gradientUnits="userSpaceOnUse">
<stop stop-color="#EDDBAE"/>
<stop offset="1" stop-color="#FFBA09"/>
</linearGradient>
<linearGradient id="paint4_linear_9_125" x1="44.0999" y1="31.7796" x2="44.0999" y2="35.8459" gradientUnits="userSpaceOnUse">
<stop stop-color="#EDDBAE"/>
<stop offset="1" stop-color="#FFBA09"/>
</linearGradient>
<linearGradient id="paint5_linear_9_125" x1="15.7896" y1="24.6184" x2="15.7896" y2="37.5352" gradientUnits="userSpaceOnUse">
<stop stop-color="#C8F6FF"/>
<stop offset="1" stop-color="#05B5D4"/>
</linearGradient>
</defs>
</svg>
