<svg width="60" height="60" viewBox="0 0 60 60" fill="none" xmlns="http://www.w3.org/2000/svg">
<path d="M56.8828 15.7676C57.9874 15.7676 58.8828 16.663 58.8828 17.7676V42.2324C58.8828 43.337 57.9874 44.2324 56.8828 44.2324H3.11719C2.01262 44.2324 1.11719 43.337 1.11719 42.2324V17.7676C1.11719 16.663 2.01262 15.7676 3.11719 15.7676H56.8828ZM5.19238 16.79C4.08799 16.7902 3.19243 17.6856 3.19238 18.79V41.21C3.19258 42.3143 4.08809 43.2098 5.19238 43.21H54.8076C55.9119 43.2098 56.8074 42.3143 56.8076 41.21V18.79C56.8076 17.6856 55.912 16.7902 54.8076 16.79H5.19238Z" fill="url(#paint0_linear_9_125)"/>
<ellipse cx="51.2617" cy="29.9999" rx="1.98373" ry="2.03312" fill="url(#paint1_linear_9_125)"/>
<ellipse cx="47.294" cy="25.9334" rx="1.98373" ry="2.03312" fill="url(#paint2_linear_9_125)"/>
<ellipse cx="43.3264" cy="30.0002" rx="1.98373" ry="2.03312" fill="url(#paint3_linear_9_125)"/>
<ellipse cx="47.294" cy="33.558" rx="1.98373" ry="2.03312" fill="url(#paint4_linear_9_125)"/>
<path d="M14.2229 23.9008V28.475H19.0539V31.5248H14.2229V36.1H11.0022V31.5248H6.17113V28.475H11.0022V23.9008H14.2229Z" fill="url(#paint5_linear_9_125)"/>
<defs>
<linearGradient id="paint0_linear_9_125" x1="27.109" y1="17.4419" x2="27.109" y2="47.5806" gradientUnits="userSpaceOnUse">
<stop stop-color="#FF80F7"/>
<stop offset="1" stop-color="#05B5D4"/>
</linearGradient>
<linearGradient id="paint1_linear_9_125" x1="51.2617" y1="27.9667" x2="51.2617" y2="32.033" gradientUnits="userSpaceOnUse">
<stop stop-color="#EDDBAE"/>
<stop offset="1" stop-color="#FFBA09"/>
</linearGradient>
<linearGradient id="paint2_linear_9_125" x1="47.294" y1="23.9002" x2="47.294" y2="27.9665" gradientUnits="userSpaceOnUse">
<stop stop-color="#EDDBAE"/>
<stop offset="1" stop-color="#FFBA09"/>
</linearGradient>
<linearGradient id="paint3_linear_9_125" x1="43.3264" y1="27.967" x2="43.3264" y2="32.0333" gradientUnits="userSpaceOnUse">
<stop stop-color="#EDDBAE"/>
<stop offset="1" stop-color="#FFBA09"/>
</linearGradient>
<linearGradient id="paint4_linear_9_125" x1="47.294" y1="31.5249" x2="47.294" y2="35.5912" gradientUnits="userSpaceOnUse">
<stop stop-color="#EDDBAE"/>
<stop offset="1" stop-color="#FFBA09"/>
</linearGradient>
<linearGradient id="paint5_linear_9_125" x1="11.9678" y1="24.6184" x2="11.9678" y2="37.5352" gradientUnits="userSpaceOnUse">
<stop stop-color="#C8F6FF"/>
<stop offset="1" stop-color="#05B5D4"/>
</linearGradient>
</defs>
</svg>
