<svg width="32" height="32" viewBox="0 0 32 32" fill="none" xmlns="http://www.w3.org/2000/svg">
<g clip-path="url(#clip0_2_13)">
<rect x="4.64012" y="10.7289" width="22.7198" height="17.6709" rx="6" fill="url(#paint0_linear_2_13)"/>
<g filter="url(#filter0_d_2_13)">
<path d="M15.3756 4.09933C15.7407 3.80745 16.2593 3.80745 16.6244 4.09933L27.9823 13.1789C28.7208 13.7693 28.3034 14.96 27.3579 14.96H4.64207C3.69661 14.96 3.27916 13.7693 4.01765 13.1789L15.3756 4.09933Z" fill="url(#paint1_linear_2_13)"/>
</g>
<g filter="url(#filter1_d_2_13)">
<path d="M15.3756 4.09933C15.7407 3.80745 16.2593 3.80745 16.6244 4.09933L27.9823 13.1789C28.7208 13.7693 28.3034 14.96 27.3579 14.96H4.64207C3.69661 14.96 3.27916 13.7693 4.01765 13.1789L15.3756 4.09933Z" fill="url(#paint2_linear_2_13)"/>
</g>
<rect x="13.4756" y="20.8266" width="5.04883" height="7.57325" rx="2" fill="url(#paint3_linear_2_13)"/>
</g>
<defs>
<filter id="filter0_d_2_13" x="-0.359909" y="-0.119579" width="32.7198" height="19.0796" filterUnits="userSpaceOnUse" color-interpolation-filters="sRGB">
<feFlood flood-opacity="0" result="BackgroundImageFix"/>
<feColorMatrix in="SourceAlpha" type="matrix" values="0 0 0 0 0 0 0 0 0 0 0 0 0 0 0 0 0 0 127 0" result="hardAlpha"/>
<feOffset/>
<feGaussianBlur stdDeviation="2"/>
<feComposite in2="hardAlpha" operator="out"/>
<feColorMatrix type="matrix" values="0 0 0 0 0 0 0 0 0 0 0 0 0 0 0 0 0 0 0.25 0"/>
<feBlend mode="normal" in2="BackgroundImageFix" result="effect1_dropShadow_2_13"/>
<feBlend mode="normal" in="SourceGraphic" in2="effect1_dropShadow_2_13" result="shape"/>
</filter>
<filter id="filter1_d_2_13" x="-0.359909" y="-0.119579" width="32.7198" height="19.0796" filterUnits="userSpaceOnUse" color-interpolation-filters="sRGB">
<feFlood flood-opacity="0" result="BackgroundImageFix"/>
<feColorMatrix in="SourceAlpha" type="matrix" values="0 0 0 0 0 0 0 0 0 0 0 0 0 0 0 0 0 0 127 0" result="hardAlpha"/>
<feOffset/>
<feGaussianBlur stdDeviation="2"/>
<feComposite in2="hardAlpha" operator="out"/>
<feColorMatrix type="matrix" values="0 0 0 0 0 0 0 0 0 0 0 0 0 0 0 0 0 0 0.25 0"/>
<feBlend mode="normal" in2="BackgroundImageFix" result="effect1_dropShadow_2_13"/>
<feBlend mode="normal" in="SourceGraphic" in2="effect1_dropShadow_2_13" result="shape"/>
</filter>
<linearGradient id="paint0_linear_2_13" x1="25.4666" y1="13.2533" x2="6.53344" y2="28.3998" gradientUnits="userSpaceOnUse">
<stop stop-color="#7C9CFF"/>
<stop offset="1" stop-color="#4564C5"/>
</linearGradient>
<linearGradient id="paint1_linear_2_13" x1="16" y1="3.60017" x2="16" y2="18.7467" gradientUnits="userSpaceOnUse">
<stop stop-color="#C150EA"/>
<stop offset="1" stop-color="#7D3199"/>
</linearGradient>
<linearGradient id="paint2_linear_2_13" x1="16" y1="3.60017" x2="16" y2="18.7467" gradientUnits="userSpaceOnUse">
<stop stop-color="#C150EA"/>
<stop offset="1" stop-color="#7D3199"/>
</linearGradient>
<linearGradient id="paint3_linear_2_13" x1="16" y1="20.8266" x2="16" y2="28.3998" gradientUnits="userSpaceOnUse">
<stop stop-color="#EDDBAE"/>
<stop offset="1" stop-color="#FFBA09"/>
</linearGradient>
<clipPath id="clip0_2_13">
<rect width="32" height="32" fill="white"/>
</clipPath>
</defs>
</svg>
