<?xml version="1.0" encoding="UTF-8" standalone="no"?>
<!-- Generator: Adobe Illustrator 18.0.0, SVG Export Plug-In . SVG Version: 6.00 Build 0)  -->

<!-- License: CC0. Made by SVG Repo: https://www.svgrepo.com/svg/42469/metronome -->

<svg
   version="1.1"
   id="Capa_1"
   x="0px"
   y="0px"
   viewBox="0 0 380 380"
   style="fill:#ffffff"
   xml:space="preserve"
   sodipodi:docname="metronome.svg"
   width="380"
   height="380"
   inkscape:version="1.4.2 (f4327f4, 2025-05-13)"
   xmlns:inkscape="http://www.inkscape.org/namespaces/inkscape"
   xmlns:sodipodi="http://sodipodi.sourceforge.net/DTD/sodipodi-0.dtd"
   xmlns="http://www.w3.org/2000/svg"
   xmlns:svg="http://www.w3.org/2000/svg"><defs
   id="defs1" /><sodipodi:namedview
   id="namedview1"
   pagecolor="#505050"
   bordercolor="#eeeeee"
   borderopacity="1"
   inkscape:showpageshadow="0"
   inkscape:pageopacity="0"
   inkscape:pagecheckerboard="0"
   inkscape:deskcolor="#505050"
   inkscape:zoom="1.6821935"
   inkscape:cx="211.62845"
   inkscape:cy="172.09673"
   inkscape:window-width="1920"
   inkscape:window-height="986"
   inkscape:window-x="-11"
   inkscape:window-y="-11"
   inkscape:window-maximized="1"
   inkscape:current-layer="Capa_1" />
<path
   d="m 337.88551,59.269204 c -0.46195,-2.410433 -1.96625,-4.493948 -4.11017,-5.687912 l -13.33379,-7.427926 6.27424,-11.265667 c 2.22802,-4.001201 0.79124,-9.050674 -3.20878,-11.277512 -4.00357,-2.228022 -9.05067,-0.790053 -11.27751,3.208779 l -6.27424,11.265667 -13.33378,-7.425557 c -2.14392,-1.193964 -4.70834,-1.376375 -6.99796,-0.499854 -2.29317,0.876522 -4.077,2.724323 -4.87653,5.044736 l -16.35305,47.508636 c -1.30649,3.798654 0.29612,7.987004 3.80576,9.942594 l 5.61566,3.129418 L 246.43592,144.94204 222.68101,24.301928 C 220.44351,12.937948 209.61729,4.0353352 198.03299,4.0353352 h -66.39293 c -11.58193,0 -22.40815,8.9026128 -24.64802,20.2665928 L 58.641235,269.86409 c -0.0024,0.0142 -0.0047,0.0272 -0.0071,0.0415 l -16.261839,82.58844 c -1.182119,6.0018 0.24282,12.00123 3.908811,16.45846 3.663622,4.45604 9.273358,7.01217 15.390055,7.01217 H 268.00308 c 6.11551,0 11.72406,-2.55613 15.39005,-7.01217 3.66599,-4.45723 5.09093,-10.45548 3.91,-16.45965 l -16.26539,-82.60743 c -10e-4,-0.002 -10e-4,-0.005 -10e-4,-0.005 l -19.64355,-99.76351 36.90865,-66.26501 5.61684,3.12942 c 1.26978,0.70832 2.65681,1.04827 4.02963,1.04827 2.42347,0 4.80429,-1.0613 6.42585,-3.04532 l 31.78693,-38.913985 c 1.55286,-1.899919 2.18419,-4.392082 1.72461,-6.801331 z M 123.26336,27.507153 c 0.71069,-3.605582 4.7036,-6.888983 8.3767,-6.888983 h 66.39293 c 3.67547,0 7.66719,3.282217 8.3767,6.887799 l 27.53817,139.851331 -35.65783,64.0204 c -7.3083,-3.13297 -15.54167,-5.48063 -25.1609,-6.35241 v -17.67256 h 12.98199 c 4.57923,0 8.29142,-3.71219 8.29142,-8.29142 0,-4.57923 -3.71219,-8.29142 -8.29142,-8.29142 h -12.98199 v -48.81394 h 12.98199 c 4.57923,0 8.29142,-3.71219 8.29142,-8.29142 0,-4.57923 -3.71219,-8.29141 -8.29142,-8.29141 H 173.12913 V 76.560362 h 12.98199 c 4.57923,0 8.29142,-3.712186 8.29142,-8.291417 0,-4.579231 -3.71219,-8.291417 -8.29142,-8.291417 H 173.12913 V 45.418984 c 0,-4.579232 -3.71219,-8.291418 -8.29142,-8.291418 -4.57923,0 -8.29142,3.712186 -8.29142,8.291418 V 59.977528 H 143.5643 c -4.57923,0 -8.29141,3.712186 -8.29141,8.291417 0,4.579231 3.71218,8.291417 8.29141,8.291417 h 12.98199 V 125.37312 H 143.5643 c -4.57923,0 -8.29141,3.71218 -8.29141,8.29141 0,4.57923 3.71218,8.29142 8.29141,8.29142 h 12.98199 v 48.81394 H 143.5643 c -4.57923,0 -8.29141,3.71219 -8.29141,8.29142 0,4.57923 3.71218,8.29142 8.29141,8.29142 h 12.98199 v 17.67256 c -23.03474,2.08825 -38.12749,12.65981 -51.60104,22.10966 -9.350353,6.55732 -17.737714,12.42883 -27.859165,14.89257 z M 270.58645,358.41998 c -0.5117,0.61949 -1.4285,0.96299 -2.58337,0.96299 H 61.671155 c -1.15606,0 -2.072854,-0.34232 -2.583368,-0.96417 -0.511699,-0.62068 -0.669236,-1.58722 -0.446552,-2.72077 l 15.013387,-76.24788 c 16.756955,-1.88689 28.966658,-10.43178 40.811548,-18.7386 14.28374,-10.01722 27.77387,-19.47772 50.37036,-19.47772 22.59648,0 36.08661,9.4605 50.36917,19.47772 11.84607,8.308 24.05459,16.8529 40.81273,18.7386 l 15.01338,76.24669 c 0.22506,1.13356 0.0663,2.1001 -0.44536,2.72314 z m -17.99712,-96.39246 c -10.12145,-2.46374 -18.50999,-8.33525 -27.86034,-14.89376 -3.76075,-2.63785 -7.64706,-5.36218 -11.79632,-7.96686 l 25.97346,-46.62975 z m 43.3345,-172.911583 -13.59081,-7.571248 10.87004,-31.580824 23.85086,13.285219 z"
   id="path1"
   style="stroke:#ffffff;stroke-width:6;stroke-dasharray:none;stroke-opacity:1" />
</svg>
