<svg width="32" height="32" viewBox="0 0 32 32" fill="none" xmlns="http://www.w3.org/2000/svg">
<g clip-path="url(#clip0_17_151)">
<g filter="url(#filter0_d_17_151)">
<path d="M23.3354 14.9999C23.8874 14.9815 24.3502 15.4138 24.3686 15.9658C24.4872 19.5104 23.9129 21.9009 23.0444 23.456C22.1805 25.0028 20.982 25.7747 19.9185 25.8486L19.8833 25.8515H17.2583L17.231 27.5507C17.222 28.1029 16.7675 28.5439 16.2153 28.5351C15.6633 28.5262 15.2232 28.0706 15.2319 27.5185L15.2583 25.8515H12.1167L12.0815 25.8486C11.018 25.7747 9.81949 25.0027 8.95556 23.456C8.08708 21.9009 7.51281 19.5104 7.63135 15.9658C7.64982 15.4138 8.11257 14.9815 8.66455 14.9999C9.21603 15.0189 9.64869 15.4806 9.63037 16.0322C9.51916 19.357 10.07 21.3491 10.7017 22.4804C11.3262 23.5985 11.9899 23.8299 12.2085 23.8515H15.2905L15.2954 23.5136C15.3042 22.9614 15.7598 22.5204 16.312 22.5292C16.864 22.5383 17.3042 22.9938 17.2954 23.5458L17.2905 23.8515H19.7915C20.0101 23.8299 20.6738 23.5986 21.2983 22.4804C21.93 21.3491 22.4808 19.357 22.3696 16.0322C22.3513 15.4805 22.7838 15.0187 23.3354 14.9999ZM17.2886 3.46478C19.4974 3.46483 21.2882 5.25602 21.2886 7.46478V17.9833C21.2886 20.1924 19.4977 21.9833 17.2886 21.9833H14.7661C12.557 21.9833 10.7661 20.1925 10.7661 17.9833V7.46478C10.7665 5.25599 12.5572 3.46478 14.7661 3.46478H17.2886ZM15.8579 5.38665C13.649 5.3868 11.8581 7.17781 11.8579 9.38665V16.0615C11.858 18.2704 13.6489 20.0613 15.8579 20.0615H16.1968C18.4058 20.0613 20.1967 18.2705 20.1968 16.0615V9.38665C20.1965 7.1778 18.4057 5.38678 16.1968 5.38665H15.8579Z" fill="url(#paint0_linear_17_151)"/>
</g>
</g>
<defs>
<filter id="filter0_d_17_151" x="3.61588" y="1.46478" width="24.7682" height="33.0704" filterUnits="userSpaceOnUse" color-interpolation-filters="sRGB">
<feFlood flood-opacity="0" result="BackgroundImageFix"/>
<feColorMatrix in="SourceAlpha" type="matrix" values="0 0 0 0 0 0 0 0 0 0 0 0 0 0 0 0 0 0 127 0" result="hardAlpha"/>
<feOffset dy="2"/>
<feGaussianBlur stdDeviation="2"/>
<feComposite in2="hardAlpha" operator="out"/>
<feColorMatrix type="matrix" values="0 0 0 0 0 0 0 0 0 0 0 0 0 0 0 0 0 0 0.25 0"/>
<feBlend mode="normal" in2="BackgroundImageFix" result="effect1_dropShadow_17_151"/>
<feBlend mode="normal" in="SourceGraphic" in2="effect1_dropShadow_17_151" result="shape"/>
</filter>
<linearGradient id="paint0_linear_17_151" x1="15.1608" y1="4.93948" x2="15.1608" y2="31.4841" gradientUnits="userSpaceOnUse">
<stop stop-color="#FF80F7"/>
<stop offset="1" stop-color="#05B5D4"/>
</linearGradient>
<clipPath id="clip0_17_151">
<rect width="32" height="32" fill="white"/>
</clipPath>
</defs>
</svg>
