<svg width="32" height="32" viewBox="0 0 32 32" fill="none" xmlns="http://www.w3.org/2000/svg">
<path d="M15.4186 10.0667C16.1535 9.4218 17.2366 9.46667 17.9226 10.1634C20.9264 13.2145 28.2646 21.3873 24.8903 25.303C20.6942 30.1717 11.4349 29.0225 8.55634 23.2757C6.30102 18.7722 12.5905 12.5492 15.4186 10.0667ZM17.8395 11.3968C17.1564 10.6974 16.0749 10.6505 15.3435 11.2991C12.7732 13.5791 7.43081 18.972 9.39521 22.8948C11.9492 27.9942 20.1652 29.0139 23.8884 24.6936C26.8334 21.276 20.5813 14.2035 17.8395 11.3968ZM14.9841 3.95537C15.6576 3.24691 16.7599 3.29674 17.3991 4.03642C18.4528 5.25594 19.716 7.08391 18.8649 8.07158C17.5123 9.64046 14.528 9.27043 13.6003 7.41826C13.0544 6.3282 14.0625 4.92516 14.9841 3.95537ZM17.3356 4.76689C16.7175 4.00956 15.6018 3.95732 14.9577 4.69267C14.301 5.44288 13.6996 6.41968 14.0886 7.19658C14.8275 8.67208 17.2045 8.96688 18.2819 7.71709C18.9009 6.99876 18.1157 5.72284 17.3356 4.76689Z" fill="url(#paint0_linear_22_274)"/>
<path d="M19.1733 17.1902C19.3533 16.9811 19.6691 16.9568 19.8784 17.1365C20.0877 17.3163 20.1115 17.6321 19.9321 17.8416L16.2319 22.1482C16.1195 22.2791 15.9539 22.3376 15.7944 22.3191C15.6457 22.3285 15.4945 22.2733 15.3882 22.1531L13.9097 20.4773C13.727 20.2702 13.7466 19.9539 13.9536 19.7712C14.1607 19.5887 14.477 19.6092 14.6597 19.8162L15.8032 21.1121L19.1733 17.1902Z" fill="url(#paint1_linear_22_274)"/>
<defs>
<linearGradient id="paint0_linear_22_274" x1="16.0336" y1="4.91655" x2="16.0336" y2="31.2882" gradientUnits="userSpaceOnUse">
<stop stop-color="#FF80F7"/>
<stop offset="1" stop-color="#05B5D4"/>
</linearGradient>
<linearGradient id="paint1_linear_22_274" x1="16.9185" y1="17.0161" x2="16.9185" y2="22.3224" gradientUnits="userSpaceOnUse">
<stop stop-color="#EDDBAE"/>
<stop offset="1" stop-color="#FFBA09"/>
</linearGradient>
</defs>
</svg>
