<svg width="32" height="32" viewBox="0 0 32 32" fill="none" xmlns="http://www.w3.org/2000/svg">
<path d="M15.42 10.066C16.1548 9.42168 17.2381 9.46616 17.9239 10.1627C20.9277 13.2138 28.2652 21.3865 24.8916 25.3023C20.6955 30.1717 11.435 29.0224 8.55667 23.275C6.30133 18.7714 12.5919 12.5484 15.42 10.066ZM17.7627 12.3052C17.0829 11.6027 15.9968 11.5574 15.2696 12.2105C12.9563 14.2892 8.49835 18.9011 10.1885 22.2769C12.436 26.7648 19.6668 27.663 22.9434 23.8609C25.4847 20.911 20.2417 14.867 17.7627 12.3052ZM14.9844 3.95563C15.6578 3.24726 16.7602 3.29643 17.3994 4.03571C18.4531 5.25513 19.717 7.08408 18.8662 8.07184C17.5137 9.64122 14.5293 9.27 13.6016 7.41754C13.056 6.32747 14.0629 4.92533 14.9844 3.95563ZM17.0215 5.40778C16.4435 4.61969 15.2931 4.56254 14.708 5.34528C14.3243 5.85912 14.0542 6.45261 14.2989 6.94196C14.8623 8.067 16.6745 8.29229 17.4961 7.33942C17.9018 6.86826 17.5159 6.08216 17.0215 5.40778Z" fill="url(#paint0_linear_22_274)"/>
<path d="M19.1737 17.1902C19.3537 16.9811 19.6695 16.9568 19.8788 17.1365C20.088 17.3163 20.1119 17.6321 19.9325 17.8416L16.2323 22.1482C16.1199 22.2791 15.9542 22.3376 15.7948 22.3191C15.6461 22.3285 15.4949 22.2733 15.3886 22.1531L13.9101 20.4773C13.7274 20.2702 13.7469 19.9539 13.954 19.7712C14.1611 19.5887 14.4774 19.6092 14.6601 19.8162L15.8036 21.1121L19.1737 17.1902Z" fill="url(#paint1_linear_22_274)"/>
<defs>
<linearGradient id="paint0_linear_22_274" x1="16.034" y1="4.91679" x2="16.034" y2="31.288" gradientUnits="userSpaceOnUse">
<stop stop-color="#FF80F7"/>
<stop offset="1" stop-color="#05B5D4"/>
</linearGradient>
<linearGradient id="paint1_linear_22_274" x1="16.9189" y1="17.0161" x2="16.9189" y2="22.3224" gradientUnits="userSpaceOnUse">
<stop stop-color="#EDDBAE"/>
<stop offset="1" stop-color="#FFBA09"/>
</linearGradient>
</defs>
</svg>
