<svg width="32" height="32" viewBox="0 0 32 32" fill="none" xmlns="http://www.w3.org/2000/svg">
<path d="M14.0489 4.70902C14.5158 2.62547 17.4843 2.62547 17.9512 4.70902L18.2871 6.20511C18.59 7.5557 20.1405 8.19813 21.3096 7.45707L22.6035 6.63578C24.4069 5.49273 26.5068 7.59219 25.3643 9.39554L24.543 10.6905C23.8019 11.8596 24.4443 13.4101 25.795 13.7129L27.291 14.0489C29.3746 14.5158 29.3746 17.4843 27.291 17.9512L25.795 18.2871C24.4443 18.59 23.8019 20.1405 24.543 21.3096L25.3643 22.6035C26.5073 24.4068 24.4079 26.5068 22.6045 25.3643L21.3096 24.543C20.1405 23.8019 18.59 24.4443 18.2871 25.795L17.9512 27.291C17.4843 29.3746 14.5158 29.3746 14.0489 27.291L13.7129 25.795C13.4101 24.4443 11.8596 23.8019 10.6905 24.543L9.39554 25.3643C7.59234 26.5067 5.49335 24.4077 6.63578 22.6045L7.45707 21.3096C8.19813 20.1405 7.55571 18.59 6.20511 18.2871L4.70902 17.9512C2.62547 17.4843 2.62547 14.5158 4.70902 14.0489L6.20511 13.7129C7.55571 13.4101 8.19813 11.8596 7.45707 10.6905L6.63578 9.39554C5.49328 7.59231 7.59232 5.49327 9.39554 6.63578L10.6905 7.45707C11.8596 8.19813 13.4101 7.55572 13.7129 6.20511L14.0489 4.70902ZM16 25.0098C15.1716 25.0098 14.5 25.6814 14.5 26.5098C14.5001 27.3381 15.1717 28.0098 16 28.0098C16.8284 28.0098 17.4999 27.3381 17.5 26.5098C17.5 25.6814 16.8284 25.0098 16 25.0098ZM8.32425 21.5703C7.49602 21.5706 6.82425 22.2421 6.82425 23.0703C6.82427 23.8986 7.49603 24.5701 8.32425 24.5703C9.15267 24.5703 9.82424 23.8988 9.82425 23.0703C9.82425 22.2419 9.15268 21.5703 8.32425 21.5703ZM23.2285 21.5703C22.4001 21.5703 21.7285 22.2419 21.7285 23.0703C21.7286 23.8988 22.4001 24.5703 23.2285 24.5703C24.0569 24.5702 24.7285 23.8987 24.7285 23.0703C24.7285 22.242 24.0569 21.5704 23.2285 21.5703ZM16 8.50003C11.8579 8.50003 8.50003 11.8579 8.50003 16C8.50005 20.1422 11.8579 23.5 16 23.5C20.1421 23.5 23.5 20.1421 23.5 16C23.5 11.8579 20.1422 8.50005 16 8.50003ZM5.32425 14.5C4.49602 14.5003 3.82425 15.1718 3.82425 16C3.82427 16.8283 4.49604 17.4998 5.32425 17.5C6.15267 17.5 6.82423 16.8284 6.82425 16C6.82425 15.1716 6.15268 14.5 5.32425 14.5ZM26.2285 14.5C25.4001 14.5 24.7285 15.1716 24.7285 16C24.7286 16.8284 25.4001 17.5 26.2285 17.5C27.0569 17.4999 27.7285 16.8284 27.7285 16C27.7285 15.1717 27.0569 14.5001 26.2285 14.5ZM8.32425 7.34085C7.49607 7.34109 6.82434 8.01264 6.82425 8.84085C6.82425 9.66914 7.49602 10.3406 8.32425 10.3409C9.15268 10.3409 9.82425 9.66928 9.82425 8.84085C9.82417 8.0125 9.15263 7.34085 8.32425 7.34085ZM23.2285 7.34085C22.4002 7.34085 21.7286 8.0125 21.7285 8.84085C21.7285 9.66928 22.4001 10.3409 23.2285 10.3409C24.0569 10.3408 24.7285 9.66922 24.7285 8.84085C24.7285 8.01256 24.0568 7.34095 23.2285 7.34085ZM16 4.34085C15.1717 4.34085 14.5001 5.0125 14.5 5.84085C14.5 6.66928 15.1716 7.34085 16 7.34085C16.8284 7.34084 17.5 6.66927 17.5 5.84085C17.5 5.01251 16.8284 4.34087 16 4.34085Z" fill="url(#paint0_linear_14_123)"/>
<defs>
<linearGradient id="paint0_linear_14_123" x1="16" y1="1.81644" x2="16" y2="30.1836" gradientUnits="userSpaceOnUse">
<stop stop-color="#EAD350"/>
<stop offset="0.418269" stop-color="#A543C8"/>
<stop offset="1" stop-color="#21B9FF"/>
</linearGradient>
</defs>
</svg>
