<svg width="32" height="32" viewBox="0 0 32 32" fill="none" xmlns="http://www.w3.org/2000/svg">
<path d="M14.0664 3.30472C14.5917 1.32039 17.4084 1.32039 17.9336 3.30472L18.5586 5.66703C18.8965 6.94303 20.3559 7.54723 21.4971 6.88382L23.6104 5.65628C25.3848 4.62474 27.3754 6.61523 26.3438 8.38968L25.1162 10.503C24.4528 11.6442 25.057 13.1036 26.333 13.4414L28.6954 14.0664C30.6797 14.5917 30.6797 17.4084 28.6954 17.9336L26.333 18.5586C25.057 18.8965 24.4528 20.3559 25.1162 21.4971L26.3438 23.6104C27.3753 25.3848 25.3848 27.3753 23.6104 26.3438L21.4971 25.1162C20.3559 24.4528 18.8965 25.057 18.5586 26.333L17.9336 28.6953C17.4084 30.6797 14.5917 30.6797 14.0664 28.6953L13.4414 26.333C13.1036 25.057 11.6442 24.4528 10.503 25.1162L8.38969 26.3438C6.61523 27.3754 4.62474 25.3848 5.65629 23.6104L6.88383 21.4971C7.54724 20.3559 6.94304 18.8965 5.66703 18.5586L3.30473 17.9336C1.3204 17.4084 1.3204 14.5917 3.30473 14.0664L5.66703 13.4414C6.94303 13.1036 7.54719 11.6441 6.88383 10.503L5.65629 8.38968C4.62467 6.6152 6.61521 4.62467 8.38969 5.65628L10.503 6.88382C11.6441 7.54719 13.1036 6.94302 13.4414 5.66703L14.0664 3.30472ZM16 8.50003C11.8579 8.50003 8.50004 11.8579 8.50004 16C8.50006 20.1422 11.8579 23.5 16 23.5C20.1421 23.5 23.5 20.1421 23.5 16C23.5 11.8579 20.1422 8.50005 16 8.50003Z" fill="url(#paint0_linear_14_123)"/>
<defs>
<linearGradient id="paint0_linear_14_123" x1="16" y1="1.81644" x2="16" y2="30.1836" gradientUnits="userSpaceOnUse">
<stop stop-color="#EAD350"/>
<stop offset="0.418269" stop-color="#A543C8"/>
<stop offset="1" stop-color="#21B9FF"/>
</linearGradient>
</defs>
</svg>
