<svg width="32" height="32" viewBox="0 0 32 32" fill="none" xmlns="http://www.w3.org/2000/svg">
<path d="M30.6235 13.8991L30.5483 13.946H30.5728C30.565 14.0392 30.5571 14.133 30.5493 14.2262L30.1274 19.2692C30.1196 19.3624 30.1118 19.4563 30.104 19.5495H29.5415C29.5337 19.4563 29.5259 19.3624 29.5181 19.2692L29.145 14.818L25.7866 16.9079C25.8321 17.0222 25.8579 17.1466 25.8579 17.277V22.6882C25.8578 22.9626 25.7452 23.2257 25.5435 23.4118C22.3255 26.3793 20.2127 27.0492 16.2935 26.9919C11.2454 26.8121 9.0763 25.9355 6.43994 23.4098C6.24734 23.2253 6.14116 22.9676 6.14111 22.7009V17.2614L1.37646 14.7555L16.5708 7.29753L30.6235 13.8991ZM16.481 22.6999L7.8335 18.151C7.77908 18.2744 7.74858 18.411 7.74854 18.5544V22.3298C7.74858 22.6124 7.86763 22.8843 8.08154 23.069C10.251 24.9406 12.0738 25.5947 16.2456 25.7301C19.4905 25.7734 21.2561 25.2734 23.9009 23.071C24.124 22.8851 24.2513 22.6075 24.2515 22.3171V18.5544C24.2514 18.3395 24.1824 18.1412 24.0669 17.9782L16.481 22.6999ZM4.71436 14.7458L16.3716 20.8766L27.2856 14.0846L16.4409 8.98991L4.71436 14.7458Z" fill="url(#paint0_linear_23_302)"/>
<defs>
<linearGradient id="paint0_linear_23_302" x1="14.5363" y1="8.45622" x2="14.5363" y2="29.3125" gradientUnits="userSpaceOnUse">
<stop stop-color="#C8F6FF"/>
<stop offset="1" stop-color="#05B5D4"/>
</linearGradient>
</defs>
</svg>
