<?xml version="1.0" encoding="UTF-8" standalone="no"?>
<svg
   width="551.05658"
   height="704.59729"
   viewBox="0 0 551.05658 704.5973"
   version="1.2"
   id="svg10"
   sodipodi:docname="bass-re-first.svg"
   inkscape:export-filename="bass-fa-first.svg"
   inkscape:export-xdpi="28.6"
   inkscape:export-ydpi="28.6"
   xmlns:inkscape="http://www.inkscape.org/namespaces/inkscape"
   xmlns:sodipodi="http://sodipodi.sourceforge.net/DTD/sodipodi-0.dtd"
   xmlns="http://www.w3.org/2000/svg"
   xmlns:svg="http://www.w3.org/2000/svg"
   xmlns:rdf="http://www.w3.org/1999/02/22-rdf-syntax-ns#"
   xmlns:cc="http://creativecommons.org/ns#"
   xmlns:dc="http://purl.org/dc/elements/1.1/">
  <defs
     id="defs10" />
  <sodipodi:namedview
     id="namedview10"
     pagecolor="#505050"
     bordercolor="#eeeeee"
     borderopacity="1"
     inkscape:showpageshadow="0"
     inkscape:pageopacity="0"
     inkscape:pagecheckerboard="0"
     inkscape:deskcolor="#505050"
     showguides="false">
    <inkscape:page
       x="0"
       y="0"
       width="551.05658"
       height="704.59729"
       id="page2"
       margin="0"
       bleed="0" />
  </sodipodi:namedview>
  <title
     id="title1">Untitled score</title>
  <desc
     id="desc1">Generated by MuseScore Studio 4.4.4</desc>
  <path
     class=""
     fill="#ffffff"
     fill-rule="evenodd"
     d="M 0,0 H 551.05657 V 704.59732 H 0 V 0"
     id="path1"
     style="stroke-width:0.176332" />
  <polyline
     class="StaffLines"
     fill="none"
     stroke="#000000"
     stroke-width="10.91"
     stroke-linejoin="bevel"
     points="1346.46,1403.15 2989.56,1403.15"
     id="polyline1-6"
     transform="matrix(0.05886751,0,0,0.47905077,195.50411,-475.54904)" />
  <polyline
     class="StaffLines"
     fill="none"
     stroke="#000000"
     stroke-width="10.91"
     stroke-linejoin="bevel"
     points="1346.46,1403.15 2989.56,1403.15"
     id="polyline1"
     transform="matrix(0.32940963,0,0,0.53024746,-438.31001,-496.9297)" />
  <polyline
     class="StaffLines"
     fill="none"
     stroke="#000000"
     stroke-width="10.91"
     stroke-linejoin="bevel"
     points="1346.46,1502.36 2989.56,1502.36"
     id="polyline2"
     transform="matrix(0.32940963,0,0,0.53024746,-438.31001,-496.9297)" />
  <polyline
     class="StaffLines"
     fill="none"
     stroke="#000000"
     stroke-width="10.91"
     stroke-linejoin="bevel"
     points="1346.46,1601.57 2989.56,1601.57"
     id="polyline3"
     transform="matrix(0.32940963,0,0,0.53024746,-438.31001,-496.9297)" />
  <polyline
     class="StaffLines"
     fill="none"
     stroke="#000000"
     stroke-width="10.91"
     stroke-linejoin="bevel"
     points="1346.46,1700.79 2989.56,1700.79"
     id="polyline4"
     transform="matrix(0.32940963,0,0,0.53024746,-438.31001,-496.9297)" />
  <polyline
     class="StaffLines"
     fill="none"
     stroke="#000000"
     stroke-width="10.91"
     stroke-linejoin="bevel"
     points="1346.46,1800 2989.56,1800"
     id="polyline5"
     transform="matrix(0.32940963,0,0,0.53024746,-438.31001,-496.9297)" />
  <polyline
     class="BarLine"
     fill="none"
     stroke="#000000"
     stroke-width="17.86"
     stroke-linejoin="bevel"
     points="2889.35,1397.69 2889.35,1805.46"
     id="polyline6"
     transform="matrix(0.32940963,0,0,0.53024746,-438.31001,-496.9297)" />
  <polyline
     class="BarLine"
     fill="none"
     stroke="#000000"
     stroke-width="54.57"
     stroke-linejoin="bevel"
     points="2962.28,1397.69 2962.28,1805.46"
     id="polyline7"
     transform="matrix(0.32940963,0,0,0.53024746,-438.31001,-496.9297)" />
  <polyline
     class="Stem"
     fill="none"
     stroke="#000000"
     stroke-width="9.92"
     stroke-linejoin="bevel"
     points="2292.32,1883.34 2292.32,1551.97"
     id="polyline9"
     transform="matrix(0.4525609,0,0,0.49387373,-739.16024,-566.84785)" />
  <path
     class="Note"
     d="m 295.54718,202.15764 c 0,8.42174 5.55621,17.82339 20.1206,17.82339 18.66166,0 38.24898,-16.65952 38.24898,-33.90103 0,-11.57577 -8.97997,-18.03746 -20.1206,-18.03746 -17.42677,0 -38.24898,16.07764 -38.24898,34.1151"
     id="path9"
     style="stroke-width:1.87616" />
  <metadata
     id="metadata10">
    <rdf:RDF>
      <cc:Work
         rdf:about="">
        <dc:title>Untitled score</dc:title>
      </cc:Work>
    </rdf:RDF>
  </metadata>
  <path
     class="Clef"
     d="m 82.109093,249.39781 c -16.54872,0 -29.801311,9.54881 -30.039064,9.54881 -12.810842,9.34447 -21.068044,23.71853 -21.068044,39.58753 0,15.86899 9.10672,27.62632 25.213691,27.62632 13.932205,0 24.806146,-9.34458 24.806146,-23.71854 0,-12.40307 -10.873941,-22.5974 -23.073129,-22.5974 -2.616403,0 -4.995166,0.40777 -6.966047,1.08738 -2.174766,0.84975 -5.844683,3.02451 -7.61168,4.55364 1.529132,-9.58278 8.053429,-19.13125 16.548496,-23.71876 5.437026,-3.02428 12.403185,-4.34953 20.014865,-4.34953 22.189403,0 33.063353,17.8401 33.063353,54.36937 0,28.27206 -18.077969,68.94698 -39.383766,88.11222 -22.631268,20.66027 -43.937289,30.44683 -44.141173,30.44683 0,0 -2.616515,1.49515 -2.616515,4.11155 0,0.44175 0.203772,0.64564 0.203772,1.08739 0.679727,2.17476 2.616627,2.61651 4.14576,2.61651 l 0.645633,-0.20377 c 0.441749,0 25.247896,-10.22808 45.02456,-25.68953 30.446719,-21.95166 64.801449,-60.65558 64.801449,-100.68497 0,-37.85486 -20.42252,-62.18505 -59.568307,-62.18505 m 68.267377,27.59245 c 0,6.11664 4.79128,10.87383 10.46606,10.87383 5.64068,0 10.43208,-4.75719 10.43208,-10.87383 0,-6.08243 -4.7914,-11.07771 -10.43208,-11.07771 -5.67478,0 -10.46606,4.99528 -10.46606,11.07771 m 0,53.72363 c 0,6.08266 4.79128,11.11191 10.46606,11.11191 5.64068,0 10.43208,-5.02925 10.43208,-11.11191 0,-6.08255 -4.7914,-11.07772 -10.43208,-11.07772 -5.67478,0 -10.46606,4.99517 -10.46606,11.07772"
     id="path10-7"
     style="stroke-width:2.17478" />
</svg>
