<?xml version="1.0" encoding="UTF-8" standalone="no"?>
<svg
   width="512.00049"
   height="364.68604"
   viewBox="0 0 512.00049 364.68604"
   version="1.2"
   id="svg10"
   sodipodi:docname="treble-do-middle.svg"
   inkscape:export-filename="treble-si-first.svg"
   inkscape:export-xdpi="28.6"
   inkscape:export-ydpi="28.6"
   xml:space="preserve"
   xmlns:inkscape="http://www.inkscape.org/namespaces/inkscape"
   xmlns:sodipodi="http://sodipodi.sourceforge.net/DTD/sodipodi-0.dtd"
   xmlns="http://www.w3.org/2000/svg"
   xmlns:svg="http://www.w3.org/2000/svg"
   xmlns:rdf="http://www.w3.org/1999/02/22-rdf-syntax-ns#"
   xmlns:cc="http://creativecommons.org/ns#"
   xmlns:dc="http://purl.org/dc/elements/1.1/"><defs
     id="defs10" /><sodipodi:namedview
     id="namedview10"
     pagecolor="#505050"
     bordercolor="#eeeeee"
     borderopacity="1"
     inkscape:showpageshadow="0"
     inkscape:pageopacity="0"
     inkscape:pagecheckerboard="0"
     inkscape:deskcolor="#505050" /><title
     id="title1">Untitled score</title><desc
     id="desc1">Generated by MuseScore Studio 4.4.4</desc><path
     class=""
     fill="#ffffff"
     fill-rule="evenodd"
     d="M -5.9528399e-5,3.2640976e-5 H 512.00044 V 364.68603 H -5.9528399e-5 V 3.2640976e-5"
     id="path1"
     style="stroke-width:0.122281" /><polyline
     class="StaffLines"
     fill="none"
     stroke="#000000"
     stroke-width="10.91"
     stroke-linejoin="bevel"
     points="1346.46,1403.15 2989.56,1403.15"
     id="polyline1"
     transform="matrix(0.29316088,0,0,0.47905077,-377.12036,-583.06124)" /><polyline
     class="StaffLines"
     fill="none"
     stroke="#000000"
     stroke-width="10.91"
     stroke-linejoin="bevel"
     points="1346.46,1403.15 2989.56,1403.15"
     id="polyline1-6"
     transform="matrix(0.04774353,0,0,0.47905077,195.22994,-632.04752)" /><polyline
     class="StaffLines"
     fill="none"
     stroke="#000000"
     stroke-width="10.91"
     stroke-linejoin="bevel"
     points="1346.46,1502.36 2989.56,1502.36"
     id="polyline2"
     transform="matrix(0.29316088,0,0,0.47905077,-377.12036,-583.06124)" /><polyline
     class="StaffLines"
     fill="none"
     stroke="#000000"
     stroke-width="10.91"
     stroke-linejoin="bevel"
     points="1346.46,1601.57 2989.56,1601.57"
     id="polyline3"
     transform="matrix(0.29316088,0,0,0.47905077,-377.12036,-583.06124)" /><polyline
     class="StaffLines"
     fill="none"
     stroke="#000000"
     stroke-width="10.91"
     stroke-linejoin="bevel"
     points="1346.46,1700.79 2989.56,1700.79"
     id="polyline4"
     transform="matrix(0.29316088,0,0,0.47905077,-377.12036,-583.06124)" /><polyline
     class="StaffLines"
     fill="none"
     stroke="#000000"
     stroke-width="10.91"
     stroke-linejoin="bevel"
     points="1346.46,1800 2989.56,1800"
     id="polyline5"
     transform="matrix(0.29316088,0,0,0.47905077,-377.12036,-583.06124)" /><polyline
     class="BarLine"
     fill="none"
     stroke="#000000"
     stroke-width="17.86"
     stroke-linejoin="bevel"
     points="2889.35,1397.69 2889.35,1805.46"
     id="polyline6"
     transform="matrix(0.29316088,0,0,0.47905077,-377.12036,-583.06124)" /><polyline
     class="BarLine"
     fill="none"
     stroke="#000000"
     stroke-width="54.57"
     stroke-linejoin="bevel"
     points="2962.28,1397.69 2962.28,1805.46"
     id="polyline7"
     transform="matrix(0.29316088,0,0,0.47905077,-377.12036,-583.06124)" /><polyline
     class="Stem"
     fill="none"
     stroke="#000000"
     stroke-width="9.92"
     stroke-linejoin="bevel"
     points="2292.32,1883.34 2292.32,1551.97"
     id="polyline9"
     transform="matrix(0.40276039,0,0,0.44618901,-647.85286,-646.34671)" /><path
     class="Note"
     d="m 272.92134,48.581633 c 0,7.6086 4.9448,16.1025 17.9065,16.1025 16.6081,0 34.04,-15.051 34.04,-30.6278 0,-10.4581 -7.9918,-16.2959 -17.9065,-16.2959 -15.5091,0 -34.04,14.5253 -34.04,30.8212"
     id="path9"
     style="stroke-width:1.68231" /><metadata
     id="metadata10"><rdf:RDF><cc:Work
         rdf:about=""><dc:title>Untitled score</dc:title></cc:Work></rdf:RDF></metadata><path
     class="Clef"
     d="m 81.87744,89.291633 c -14.7562,0 -26.5733,8.5145 -26.7853,8.5145 -11.4232,8.332297 -18.786,21.149397 -18.786,35.299497 0,14.1501 8.1203,24.6339 22.4826,24.6339 12.4231,0 22.1192,-8.3324 22.1192,-21.1494 0,-11.0596 -9.6961,-20.1497 -20.5739,-20.1497 -2.333,0 -4.4541,0.3636 -6.2115,0.9696 -1.9392,0.7577 -5.2116,2.6969 -6.7872,4.0604 1.3635,-8.5448 7.1811,-17.059 14.756,-21.1496 4.8481,-2.696697 11.0597,-3.878397 17.8469,-3.878397 19.7859,0 29.482,15.907697 29.482,48.480197 0,25.2097 -16.1198,61.4788 -35.1178,78.5681 -20.1799,18.4224 -39.1781,27.1489 -39.3599,27.1489 0,0 -2.3331,1.3332 -2.3331,3.6662 0,0.3939 0.1817,0.5757 0.1817,0.9696 0.6061,1.9392 2.3332,2.3331 3.6967,2.3331 l 0.5757,-0.1817 c 0.3939,0 22.5131,-9.1202 40.1476,-22.9069 27.1488,-19.5739 57.7823,-54.0855 57.7823,-89.779 0,-33.7545 -18.2104,-55.449297 -53.116,-55.449297 m 60.8728,24.603697 c 0,5.4541 4.2723,9.696 9.3324,9.696 5.0297,0 9.3021,-4.2419 9.3021,-9.696 0,-5.4236 -4.2724,-9.8778 -9.3021,-9.8778 -5.0601,0 -9.3324,4.4542 -9.3324,9.8778 m 0,47.9044 c 0,5.4238 4.2723,9.9083 9.3324,9.9083 5.0297,0 9.3021,-4.4845 9.3021,-9.9083 0,-5.4237 -4.2724,-9.8778 -9.3021,-9.8778 -5.0601,0 -9.3324,4.4541 -9.3324,9.8778"
     id="path10-7"
     style="stroke-width:1.93921" /></svg>
