<?xml version="1.0" encoding="UTF-8" standalone="no"?>
<svg
   width="512.00049"
   height="364.686"
   viewBox="0 0 512.00049 364.68601"
   version="1.2"
   id="svg10"
   sodipodi:docname="treble-si-first.svg"
   inkscape:export-filename="treble-do-second.svg"
   inkscape:export-xdpi="28.6"
   inkscape:export-ydpi="28.6"
   xmlns:inkscape="http://www.inkscape.org/namespaces/inkscape"
   xmlns:sodipodi="http://sodipodi.sourceforge.net/DTD/sodipodi-0.dtd"
   xmlns="http://www.w3.org/2000/svg"
   xmlns:svg="http://www.w3.org/2000/svg"
   xmlns:rdf="http://www.w3.org/1999/02/22-rdf-syntax-ns#"
   xmlns:cc="http://creativecommons.org/ns#"
   xmlns:dc="http://purl.org/dc/elements/1.1/">
  <defs
     id="defs10" />
  <sodipodi:namedview
     id="namedview10"
     pagecolor="#505050"
     bordercolor="#eeeeee"
     borderopacity="1"
     inkscape:showpageshadow="0"
     inkscape:pageopacity="0"
     inkscape:pagecheckerboard="0"
     inkscape:deskcolor="#505050" />
  <title
     id="title1">Untitled score</title>
  <desc
     id="desc1">Generated by MuseScore Studio 4.4.4</desc>
  <path
     class=""
     fill="#ffffff"
     fill-rule="evenodd"
     d="M 0,0 H 512.0005 V 364.686 H 0 V 0"
     id="path1"
     style="stroke-width:0.122281" />
  <polyline
     class="StaffLines"
     fill="none"
     stroke="#000000"
     stroke-width="10.91"
     stroke-linejoin="bevel"
     points="1346.46,1403.15 2989.56,1403.15"
     id="polyline1"
     transform="matrix(0.29316088,0,0,0.47905077,-377.1203,-583.06127)" />
  <polyline
     class="StaffLines"
     fill="none"
     stroke="#000000"
     stroke-width="10.91"
     stroke-linejoin="bevel"
     points="1346.46,1502.36 2989.56,1502.36"
     id="polyline2"
     transform="matrix(0.29316088,0,0,0.47905077,-377.1203,-583.06127)" />
  <polyline
     class="StaffLines"
     fill="none"
     stroke="#000000"
     stroke-width="10.91"
     stroke-linejoin="bevel"
     points="1346.46,1601.57 2989.56,1601.57"
     id="polyline3"
     transform="matrix(0.29316088,0,0,0.47905077,-377.1203,-583.06127)" />
  <polyline
     class="StaffLines"
     fill="none"
     stroke="#000000"
     stroke-width="10.91"
     stroke-linejoin="bevel"
     points="1346.46,1700.79 2989.56,1700.79"
     id="polyline4"
     transform="matrix(0.29316088,0,0,0.47905077,-377.1203,-583.06127)" />
  <polyline
     class="StaffLines"
     fill="none"
     stroke="#000000"
     stroke-width="10.91"
     stroke-linejoin="bevel"
     points="1346.46,1800 2989.56,1800"
     id="polyline5"
     transform="matrix(0.29316088,0,0,0.47905077,-377.1203,-583.06127)" />
  <polyline
     class="BarLine"
     fill="none"
     stroke="#000000"
     stroke-width="17.86"
     stroke-linejoin="bevel"
     points="2889.35,1397.69 2889.35,1805.46"
     id="polyline6"
     transform="matrix(0.29316088,0,0,0.47905077,-377.1203,-583.06127)" />
  <polyline
     class="BarLine"
     fill="none"
     stroke="#000000"
     stroke-width="54.57"
     stroke-linejoin="bevel"
     points="2962.28,1397.69 2962.28,1805.46"
     id="polyline7"
     transform="matrix(0.29316088,0,0,0.47905077,-377.1203,-583.06127)" />
  <polyline
     class="Stem"
     fill="none"
     stroke="#000000"
     stroke-width="9.92"
     stroke-linejoin="bevel"
     points="2292.32,1883.34 2292.32,1551.97"
     id="polyline9"
     transform="matrix(0.40276039,0,0,0.44618901,-643.96249,-528.31814)" />
  <path
     class="Note"
     d="m 275.9821,168.0169 c 0,7.6086 4.9448,16.1025 17.9065,16.1025 16.6081,0 34.04,-15.051 34.04,-30.6278 0,-10.4581 -7.9918,-16.2959 -17.9065,-16.2959 -15.5091,0 -34.04,14.5253 -34.04,30.8212"
     id="path9"
     style="stroke-width:1.68231" />
  <path
     class="Clef"
     d="m 48.3632,329.2248 c 0,12.5652 8.5803,29.1108 31.7474,29.1108 8.0708,0 15.1229,-2.2873 21.2898,-6.4757 9.2776,-7.2181 11.664,-19.7833 11.664,-31.7546 0,-7.3963 -1.0187,-15.9513 -2.735,-26.7937 -0.5093,-3.8023 -1.5552,-9.5056 -2.5739,-16.932 16.812,-6.0893 29.334,-25.4865 29.334,-45.0622 0,-28.6949 -18.3674,-48.0922 -43.4113,-48.0922 -1.716,-11.4066 -3.4323,-22.6352 -4.7996,-33.2693 18.0187,-21.1204 30.5407,-44.8843 30.5407,-75.0942 0,-17.318 -4.7996,-31.3683 -7.5614,-38.2293 -4.1024,-9.6844 -9.0899,-16.3382 -12.1735,-16.3382 -1.2066,0 -6.5156,2.2869 -12.1733,9.6842 -10.9937,14.4655 -14.0772,38.794 -14.0772,54.7455 0,10.2777 0.858,19.6051 3.7808,40.9034 -0.1878,0.1785 -9.1167,10.2482 -12.7098,13.4862 -15.6323,15.9812 -37.244,39.151 -37.244,77.2029 0,35.5273 27.9666,63.4795 59.9017,63.4795 4.9605,0 9.5991,-0.5645 13.5408,-1.3367 3.2712,18.2684 5.3359,31.5761 5.3359,41.6461 0,19.7836 -9.2776,30.2398 -26.599,30.2398 -4.1294,0 -7.7224,-0.9505 -8.0711,-0.9505 -0.1608,-0.208 -0.5092,-0.3863 -0.5092,-0.5645 0,-0.3861 0.3484,-0.5943 0.8579,-0.5943 8.0709,-1.5148 16.1149,-9.1194 16.1149,-21.2685 0,-10.278 -7.0252,-21.1204 -19.8957,-21.1204 -12.0125,0 -19.5739,10.8424 -19.5739,23.3779 M 84.2398,75.4262 c 1.5552,-7.6043 9.4384,-27.5661 18.3674,-27.5661 2.5741,0 6.6765,9.1192 6.6765,22.4271 0,19.7833 -13.1922,34.6063 -25.0439,47.5279 -1.0189,-7.6046 -1.877,-15.001 -1.877,-22.9916 0,-7.04 0.5097,-13.5157 1.877,-19.3973 M 99.336,270.8547 c -3.4322,0.7723 -6.6767,1.1584 -9.9481,1.1584 -24.5343,0 -45.4759,-19.011 -45.4759,-47.7356 0,-23.1702 14.7475,-43.9039 29.8705,-58.3703 2.8958,-2.8516 5.6578,-5.4953 8.2318,-8.3469 1.5285,10.248 2.735,19.1892 3.9415,27.0016 -15.6323,5.1389 -26.2503,23.3778 -26.2503,41.2601 0,13.3078 9.4382,31.5467 23.167,31.5467 1.3673,0 2.9225,-0.7722 2.9225,-2.4656 0,-1.7228 -1.716,-2.6733 -3.7807,-4.1883 -6.7034,-4.5745 -10.4841,-9.5056 -10.4841,-18.8329 0,-11.585 7.9101,-20.9124 17.8577,-23.5561 l 9.9481,62.5289 m 24.3735,-35.1705 c 0,13.5157 -4.9874,27.3878 -17.1609,32.9131 -3.593,-22.8137 -8.2316,-53.0531 -9.4383,-61.4299 15.4446,0 26.5992,11.6146 26.5992,28.5168"
     id="path10"
     style="stroke-width:1.80621" />
  <metadata
     id="metadata10">
    <rdf:RDF>
      <cc:Work
         rdf:about="">
        <dc:title>Untitled score</dc:title>
      </cc:Work>
    </rdf:RDF>
  </metadata>
</svg>
