<?xml version="1.0" encoding="UTF-8" standalone="no"?>
<svg width="210.058mm" height="296.926mm" viewBox="0 0 2977.2 4208.4"
 xmlns="http://www.w3.org/2000/svg" xmlns:xlink="http://www.w3.org/1999/xlink" version="1.2" baseProfile="full">
<title>Untitled score</title>
<desc>Generated by MuseScore Studio 4.6.5</desc>
<polyline class="StaffLines" fill="none" stroke="#000000" stroke-width="2.73" stroke-linejoin="bevel" points="336.598,634.198 884.605,634.198" />
<polyline class="StaffLines" fill="none" stroke="#000000" stroke-width="2.73" stroke-linejoin="bevel" points="336.598,658.998 884.605,658.998" />
<polyline class="StaffLines" fill="none" stroke="#000000" stroke-width="2.73" stroke-linejoin="bevel" points="336.598,683.798 884.605,683.798" />
<polyline class="StaffLines" fill="none" stroke="#000000" stroke-width="2.73" stroke-linejoin="bevel" points="336.598,708.598 884.605,708.598" />
<polyline class="StaffLines" fill="none" stroke="#000000" stroke-width="2.73" stroke-linejoin="bevel" points="336.598,733.398 884.605,733.398" />
<path class="Text" d="M1188.15,220.348 C1198.69,220.895 1200.79,223.973 1200.79,239.052 L1200.79,263.364 C1200.79,272.161 1200.24,275.677 1198.15,279.536 C1194.63,286.348 1187.47,290.302 1178.57,290.302 C1170.97,290.302 1164.6,287.442 1160.97,282.505 C1158,278.427 1157.44,275.786 1157.44,265.552 L1157.44,228.708 C1157.44,223.098 1157.44,222.88 1158.11,221.895 C1158.99,220.786 1161.08,220.458 1167.35,220.348 L1169.44,220.348 L1169.44,215.177 L1133.47,215.177 L1133.47,220.348 L1135.33,220.348 C1141.5,220.458 1143.58,220.786 1144.47,221.895 C1145.13,222.88 1145.13,223.098 1145.13,228.708 L1145.13,272.489 C1145.46,278.317 1146.33,281.833 1148.43,284.911 C1153.49,292.177 1163.16,296.255 1175.6,296.255 C1188.04,296.255 1196.61,292.505 1201.9,284.692 C1205.41,279.645 1206.72,273.802 1206.72,264.02 L1206.72,239.052 C1206.61,224.083 1208.82,220.895 1219.49,220.348 L1219.49,215.177 L1188.15,215.177 L1188.15,220.348 M1239.6,243.333 L1220.57,244.552 L1220.57,249.286 L1224.54,249.286 C1228.71,249.395 1229.25,250.052 1229.25,254.786 L1229.25,286.239 C1229.15,287.895 1229.04,288.552 1228.6,289.098 C1227.83,290.083 1225.74,290.536 1221,290.645 L1220.57,290.645 L1220.57,294.598 L1248.4,294.598 L1248.4,290.645 L1247.96,290.645 C1240.58,290.411 1239.6,289.864 1239.6,285.911 L1239.6,269.63 C1239.6,264.239 1240.36,259.286 1241.58,256.755 C1243.9,251.802 1248.83,248.395 1253.57,248.395 C1256.43,248.395 1259.72,249.942 1261.38,252.255 C1263.04,254.661 1263.8,257.973 1263.8,263.255 L1263.8,286.239 C1263.69,287.895 1263.58,288.552 1263.15,289.098 C1262.36,290.083 1260.16,290.536 1255.44,290.645 L1255,290.645 L1255,294.598 L1282.83,294.598 L1282.83,290.645 L1282.4,290.645 C1275.13,290.411 1274.15,289.864 1274.15,285.911 L1274.15,263.802 C1274.15,255.88 1273.8,253.895 1271.83,250.161 C1269.08,244.88 1263.58,241.692 1256.97,241.692 C1249.83,241.692 1244.44,244.989 1239.6,252.255 L1239.6,243.333 M1305.94,243.333 L1305.94,221.552 L1301.43,221.552 C1300.33,235.864 1295.49,243.114 1286.58,243.786 L1286.58,248.067 L1295.6,248.067 L1295.6,276.114 C1295.6,283.817 1295.82,286.567 1296.91,289.098 C1298.68,293.723 1303.08,296.255 1309.46,296.255 C1319.36,296.255 1325.74,288.77 1325.74,277.114 C1325.74,276.442 1325.74,275.677 1325.63,274.583 L1321,274.583 C1320.68,284.473 1317.82,289.536 1312.43,289.536 C1309.9,289.536 1307.69,288.223 1306.93,286.348 C1306.27,284.802 1305.94,282.052 1305.94,278.098 L1305.94,248.067 L1322.11,248.067 L1322.11,243.333 L1305.94,243.333 M1345.08,215.942 C1341.57,215.942 1338.71,218.802 1338.71,222.333 C1338.71,225.848 1341.57,228.708 1344.97,228.708 C1348.61,228.708 1351.47,225.848 1351.47,222.333 C1351.47,218.802 1348.61,215.942 1345.08,215.942 M1350.25,243.333 L1329.58,244.552 L1329.58,249.286 L1335.19,249.286 C1339.36,249.395 1339.91,250.052 1339.91,254.786 L1339.91,286.239 C1339.8,287.895 1339.69,288.552 1339.25,289.098 C1338.49,290.083 1336.4,290.536 1331.66,290.645 L1330.9,290.645 L1330.9,294.598 L1359.4,294.598 L1359.4,290.645 L1358.61,290.645 C1351.25,290.411 1350.25,289.864 1350.25,285.911 L1350.25,243.333 M1383.94,243.333 L1383.94,221.552 L1379.43,221.552 C1378.33,235.864 1373.49,243.114 1364.58,243.786 L1364.58,248.067 L1373.6,248.067 L1373.6,276.114 C1373.6,283.817 1373.82,286.567 1374.91,289.098 C1376.68,293.723 1381.08,296.255 1387.46,296.255 C1397.36,296.255 1403.74,288.77 1403.74,277.114 C1403.74,276.442 1403.74,275.677 1403.63,274.583 L1399,274.583 C1398.68,284.473 1395.82,289.536 1390.43,289.536 C1387.9,289.536 1385.69,288.223 1384.93,286.348 C1384.27,284.802 1383.94,282.052 1383.94,278.098 L1383.94,248.067 L1400.11,248.067 L1400.11,243.333 L1383.94,243.333 M1428.04,213.52 L1407.69,214.739 L1407.69,219.473 L1413.08,219.473 C1417.15,219.583 1417.69,220.239 1417.69,224.973 L1417.69,286.239 C1417.58,287.895 1417.47,288.552 1417.04,289.098 C1416.27,290.083 1414.18,290.536 1409.44,290.645 L1408.68,290.645 L1408.68,294.598 L1437.16,294.598 L1437.16,290.645 L1436.4,290.645 C1429.04,290.411 1428.04,289.864 1428.04,285.911 L1428.04,213.52 M1491.75,269.848 C1491.86,253.348 1482.5,241.692 1469.08,241.692 C1455,241.692 1444.44,253.895 1444.44,270.395 C1444.44,285.911 1454.46,296.255 1469.3,296.255 C1479.86,296.255 1487.24,291.083 1491.75,280.63 L1487.9,278.536 C1483.4,287.005 1478.77,290.302 1471.4,290.302 C1465.79,290.302 1461.72,288.005 1458.86,283.052 C1456.88,279.755 1456,275.895 1456.11,269.848 L1491.75,269.848 M1456.22,265.114 C1456.22,257.411 1459.74,246.411 1468.97,246.411 C1475.58,246.411 1479.97,252.255 1479.97,261.161 C1479.97,264.239 1478.99,265.114 1475.47,265.114 L1456.22,265.114 M1537.4,295.364 L1556.54,294.598 L1556.54,289.864 L1554.55,289.864 C1548.29,289.536 1547.74,288.88 1547.74,281.833 L1547.74,213.52 L1526.18,214.739 L1526.18,219.473 L1532.66,219.473 C1536.85,219.583 1537.4,220.239 1537.4,224.973 L1537.4,249.833 C1533.33,244.223 1528.6,241.692 1522.22,241.692 C1509.79,241.692 1500.33,253.677 1500.33,269.52 C1500.33,285.145 1509.46,296.255 1522.22,296.255 C1529.15,296.255 1533.88,293.286 1537.4,286.677 L1537.4,295.364 M1524.41,247.63 C1528.93,247.63 1533.22,250.927 1535.19,255.989 C1536.63,259.286 1537.29,263.802 1537.29,269.192 C1537.29,282.052 1532.22,290.302 1524.3,290.302 C1516.5,290.302 1511.88,283.052 1511.88,270.833 C1511.88,264.239 1512.54,259.286 1513.97,255.661 C1515.83,250.708 1519.91,247.63 1524.41,247.63 M1632.5,242.13 L1628.65,242.13 L1625.46,246.083 C1621.5,243.005 1617.54,241.692 1612.04,241.692 C1602.36,241.692 1595.97,247.958 1595.97,257.645 C1595.97,267.973 1602.69,270.614 1611.49,272.708 L1617.32,274.036 C1626,276.114 1629.08,278.317 1629.08,282.723 C1629.08,287.895 1624.58,291.52 1618.19,291.52 C1608.85,291.52 1602.25,285.583 1599.61,274.583 L1595.21,274.583 L1595.21,295.364 L1599.05,295.364 L1602.91,290.864 C1607.41,294.489 1612.36,296.255 1617.97,296.255 C1628.75,296.255 1635.91,289.536 1635.91,279.302 C1635.91,274.473 1634.36,270.723 1631.29,268.192 C1628.65,265.895 1626.44,265.005 1619.74,263.583 L1614.24,262.364 C1608.19,261.052 1608.19,261.052 1606.21,259.942 C1603.79,258.848 1602.36,256.536 1602.36,254.114 C1602.36,249.614 1606.54,246.536 1612.58,246.536 C1621.61,246.536 1626,252.911 1628.65,260.614 L1632.5,260.614 L1632.5,242.13 M1683.16,278.427 C1679.65,286.348 1675.91,289.536 1670.19,289.536 C1661.4,289.536 1655.9,281.505 1655.9,268.645 C1655.9,255.223 1661.29,246.411 1669.41,246.411 C1672.72,246.411 1675.58,247.958 1675.58,249.723 C1675.58,250.052 1675.47,250.38 1674.91,251.036 C1673.16,253.13 1672.72,254.223 1672.72,256.098 C1672.72,259.723 1675.47,262.255 1679.32,262.255 C1683.29,262.255 1686.04,259.177 1686.04,254.786 C1686.04,247.302 1678.66,241.692 1668.86,241.692 C1654.57,241.692 1644.33,253.348 1644.33,269.848 C1644.33,285.473 1653.69,296.255 1667.33,296.255 C1677.11,296.255 1682.72,291.739 1687.46,280.083 L1683.16,278.427 M1717.32,241.692 C1703.79,241.692 1693.33,253.677 1693.33,269.083 C1693.33,284.145 1703.9,296.255 1717.1,296.255 C1730.3,296.255 1740.86,284.145 1740.86,268.973 C1740.86,253.895 1730.3,241.692 1717.32,241.692 M1717.32,246.411 C1725.02,246.411 1729.3,254.442 1729.3,268.973 C1729.3,283.598 1725.02,291.52 1717.1,291.52 C1709.18,291.52 1704.9,283.598 1704.9,269.083 C1704.9,254.114 1709.07,246.411 1717.32,246.411 M1766.38,243.333 L1746.91,244.552 L1746.91,249.286 L1751.41,249.286 C1755.6,249.395 1756.15,250.052 1756.15,254.786 L1756.15,286.239 C1756.04,287.895 1755.93,288.552 1755.49,289.098 C1754.72,290.083 1752.52,290.536 1747.79,290.645 L1747.35,290.645 L1747.35,294.598 L1776.72,294.598 L1776.72,290.645 L1774.74,290.645 C1767.36,290.411 1766.38,289.864 1766.38,285.911 L1766.38,279.973 C1766.49,261.489 1773.08,247.411 1781.66,246.973 C1780.13,248.723 1779.69,249.833 1779.69,251.911 C1779.69,255.442 1782.22,257.973 1785.74,257.973 C1789.8,257.973 1792.44,255.005 1792.44,250.598 C1792.44,245.208 1788.71,241.692 1782.88,241.692 C1775.94,241.692 1770,247.192 1766.38,256.973 L1766.38,243.333 M1843.75,269.848 C1843.86,253.348 1834.5,241.692 1821.08,241.692 C1807,241.692 1796.44,253.895 1796.44,270.395 C1796.44,285.911 1806.46,296.255 1821.3,296.255 C1831.86,296.255 1839.24,291.083 1843.75,280.63 L1839.9,278.536 C1835.4,287.005 1830.77,290.302 1823.4,290.302 C1817.79,290.302 1813.72,288.005 1810.86,283.052 C1808.88,279.755 1808,275.895 1808.11,269.848 L1843.75,269.848 M1808.22,265.114 C1808.22,257.411 1811.74,246.411 1820.97,246.411 C1827.58,246.411 1831.97,252.255 1831.97,261.161 C1831.97,264.239 1830.99,265.114 1827.47,265.114 L1808.22,265.114 "/>
<path class="Text" d="M1396.82,355.362 L1394.24,355.362 L1391.43,359.565 C1388.07,356.409 1383.66,354.737 1378.69,354.737 C1369.44,354.737 1363.36,360.549 1363.36,369.362 C1363.36,377.003 1367.15,380.784 1377.43,383.44 L1384.08,385.112 C1389.25,386.456 1389.75,386.596 1391.22,387.706 C1393.32,389.315 1394.44,391.628 1394.44,394.362 C1394.44,397.159 1393.4,399.471 1391.29,401.424 C1388.99,403.393 1386.68,404.159 1382.82,404.159 C1372.25,404.159 1367,396.393 1365.18,386.94 L1362.18,386.94 L1362.44,406.893 L1365.18,406.893 L1368.33,402.128 C1373.02,405.987 1376.86,407.378 1383.04,407.378 C1393.32,407.378 1399.9,401.362 1399.9,391.987 C1399.9,387.565 1398.5,383.924 1395.71,381.268 C1393.82,379.44 1391.08,378.253 1385.49,376.862 L1377.99,374.971 C1371.75,373.362 1368.82,370.628 1368.82,366.362 C1368.82,361.456 1372.82,358.096 1378.75,358.096 C1387.79,358.096 1392.75,365.581 1394.65,373.565 L1397.66,373.565 L1396.82,355.362 M1431.44,406.815 L1444.18,406.331 L1444.18,403.315 L1442.43,403.315 C1438.38,403.174 1438.02,402.753 1438.02,398.206 L1438.02,373.706 L1424.86,374.471 L1424.86,377.487 L1428.43,377.487 C1431.1,377.565 1431.44,377.971 1431.44,380.987 L1431.44,389.596 C1431.44,395.69 1429.97,403.112 1422.27,403.112 C1420.1,403.112 1418.29,402.346 1417.36,400.94 C1416.46,399.612 1416.32,398.909 1416.32,395.065 L1416.32,373.706 L1404.07,374.471 L1404.07,377.487 L1406.72,377.487 C1409.4,377.565 1409.74,377.971 1409.74,380.987 L1409.74,396.112 C1409.74,399.674 1410.02,401.284 1411.07,402.893 C1412.96,405.768 1416.32,407.378 1420.52,407.378 C1425.15,407.378 1428.36,405.487 1431.44,401.003 L1431.44,406.815 M1458.19,354.737 L1446.16,355.503 L1446.16,358.518 L1448.61,358.518 C1451.27,358.581 1451.61,359.003 1451.61,362.018 L1451.61,389.253 C1451.61,398.987 1451.19,404.299 1450.36,407.315 L1453.02,407.315 L1456.44,401.846 C1459.32,405.628 1462.61,407.378 1466.96,407.378 C1475.63,407.378 1482,399.956 1482,389.815 C1482,379.721 1476.11,372.659 1467.72,372.659 C1463.46,372.659 1460.86,374.128 1458.19,378.112 L1458.19,354.737 M1466.46,376.221 C1471.71,376.221 1474.65,381.331 1474.65,390.503 C1474.65,399.393 1471.79,404.378 1466.68,404.378 C1461.15,404.378 1457.85,399.253 1457.85,390.643 C1457.85,381.268 1460.86,376.221 1466.46,376.221 M1498.18,373.706 L1498.18,359.846 L1495.32,359.846 C1494.61,368.94 1491.54,373.565 1485.86,373.987 L1485.86,376.721 L1491.6,376.721 L1491.6,394.565 C1491.6,399.471 1491.74,401.221 1492.44,402.831 C1493.57,405.768 1496.36,407.378 1500.43,407.378 C1506.72,407.378 1510.79,402.628 1510.79,395.206 C1510.79,394.784 1510.79,394.284 1510.71,393.596 L1507.77,393.596 C1507.57,399.893 1505.74,403.112 1502.32,403.112 C1500.71,403.112 1499.3,402.268 1498.82,401.081 C1498.4,400.096 1498.18,398.346 1498.18,395.831 L1498.18,376.721 L1508.47,376.721 L1508.47,373.706 L1498.18,373.706 M1522.72,356.268 C1520.49,356.268 1518.68,358.096 1518.68,360.331 C1518.68,362.581 1520.49,364.393 1522.66,364.393 C1524.97,364.393 1526.79,362.581 1526.79,360.331 C1526.79,358.096 1524.97,356.268 1522.72,356.268 M1526.02,373.706 L1512.86,374.471 L1512.86,377.487 L1516.43,377.487 C1519.08,377.565 1519.44,377.971 1519.44,380.987 L1519.44,401.003 C1519.36,402.065 1519.3,402.487 1519.02,402.831 C1518.54,403.456 1517.19,403.737 1514.19,403.815 L1513.69,403.815 L1513.69,406.331 L1531.83,406.331 L1531.83,403.815 L1531.33,403.815 C1526.65,403.674 1526.02,403.315 1526.02,400.799 L1526.02,373.706 M1547.18,373.706 L1547.18,359.846 L1544.32,359.846 C1543.61,368.94 1540.54,373.565 1534.86,373.987 L1534.86,376.721 L1540.6,376.721 L1540.6,394.565 C1540.6,399.471 1540.74,401.221 1541.44,402.831 C1542.57,405.768 1545.36,407.378 1549.43,407.378 C1555.72,407.378 1559.79,402.628 1559.79,395.206 C1559.79,394.784 1559.79,394.284 1559.71,393.596 L1556.77,393.596 C1556.57,399.893 1554.74,403.112 1551.32,403.112 C1549.71,403.112 1548.3,402.268 1547.82,401.081 C1547.4,400.096 1547.18,398.346 1547.18,395.831 L1547.18,376.721 L1557.47,376.721 L1557.47,373.706 L1547.18,373.706 M1574.88,354.737 L1561.93,355.503 L1561.93,358.518 L1565.36,358.518 C1567.94,358.581 1568.3,359.003 1568.3,362.018 L1568.3,401.003 C1568.22,402.065 1568.16,402.487 1567.88,402.831 C1567.4,403.456 1566.05,403.737 1563.05,403.815 L1562.55,403.815 L1562.55,406.331 L1580.69,406.331 L1580.69,403.815 L1580.21,403.815 C1575.5,403.674 1574.88,403.315 1574.88,400.799 L1574.88,354.737 M1615.15,390.581 C1615.22,380.081 1609.27,372.659 1600.72,372.659 C1591.77,372.659 1585.05,380.424 1585.05,390.924 C1585.05,400.799 1591.43,407.378 1600.86,407.378 C1607.6,407.378 1612.29,404.096 1615.15,397.44 L1612.71,396.112 C1609.83,401.503 1606.9,403.596 1602.21,403.596 C1598.63,403.596 1596.04,402.128 1594.22,398.987 C1592.96,396.878 1592.4,394.424 1592.47,390.581 L1615.15,390.581 M1592.54,387.565 C1592.54,382.674 1594.79,375.674 1600.66,375.674 C1604.86,375.674 1607.66,379.378 1607.66,385.049 C1607.66,387.003 1607.04,387.565 1604.79,387.565 L1592.54,387.565 "/>
<path class="Text" d="M2321.55,413.145 L2319.65,413.145 L2317.65,416.098 C2314,413.442 2312.15,412.739 2308.69,412.739 C2303.94,412.739 2299.9,414.739 2296.55,418.739 C2293.35,422.552 2291.85,426.755 2291.85,431.895 C2291.85,442.692 2298.9,450.348 2308.75,450.348 C2316.75,450.348 2321.85,445.645 2323,437.255 L2320.65,436.848 C2319.3,444.302 2315.5,448.005 2309.35,448.005 C2301.94,448.005 2298.44,442.895 2298.44,432.098 C2298.44,426.395 2299.19,422.645 2300.9,419.645 C2302.44,416.848 2305.5,415.098 2308.75,415.098 C2312.25,415.098 2315.35,416.942 2317.25,420.145 C2318.21,421.802 2318.9,423.645 2320.1,427.598 L2322.3,427.598 L2321.55,413.145 M2338.19,425.552 C2332.05,425.552 2327.3,431.005 2327.3,438.005 C2327.3,444.848 2332.1,450.348 2338.1,450.348 C2344.1,450.348 2348.9,444.848 2348.9,437.942 C2348.9,431.098 2344.1,425.552 2338.19,425.552 M2338.19,427.692 C2341.69,427.692 2343.65,431.348 2343.65,437.942 C2343.65,444.598 2341.69,448.192 2338.1,448.192 C2334.5,448.192 2332.55,444.598 2332.55,438.005 C2332.55,431.192 2334.44,427.692 2338.19,427.692 M2360.65,426.302 L2351.75,426.848 L2351.75,429.005 L2353.8,429.005 C2355.69,429.052 2355.94,429.348 2355.94,431.505 L2355.94,445.802 C2355.9,446.552 2355.85,446.848 2355.65,447.098 C2355.3,447.552 2354.35,447.755 2352.19,447.802 L2352,447.802 L2352,449.598 L2364.6,449.598 L2364.6,447.802 L2364.4,447.802 C2361.1,447.692 2360.65,447.442 2360.65,445.598 L2360.65,436.348 C2360.65,431.895 2363.1,428.598 2366.35,428.598 C2369.19,428.598 2370.65,430.645 2370.65,434.692 L2370.65,445.848 C2370.6,446.505 2370.55,446.848 2370.3,447.098 C2370,447.552 2369,447.755 2366.85,447.802 L2366.65,447.802 L2366.65,449.598 L2379.3,449.598 L2379.3,447.802 L2379.1,447.802 C2375.8,447.692 2375.35,447.442 2375.35,445.645 L2375.35,436.802 C2375.35,431.802 2377.6,428.598 2381.1,428.598 C2383.96,428.598 2385.35,430.755 2385.35,435.255 L2385.35,445.802 C2385.3,446.505 2385.25,446.848 2385,447.098 C2384.71,447.552 2383.71,447.755 2381.55,447.802 L2381.35,447.802 L2381.35,449.598 L2394,449.598 L2394,447.802 L2393.8,447.802 C2390.5,447.692 2390.05,447.442 2390.05,445.598 L2390.05,434.255 C2390.05,431.145 2389.75,430.098 2388.46,428.395 C2387,426.552 2384.96,425.552 2382.55,425.552 C2379.3,425.552 2376.9,427.098 2374.75,430.552 C2373.9,427.552 2371.19,425.552 2367.85,425.552 C2364.8,425.552 2362.6,427.005 2360.65,430.145 L2360.65,426.302 M2403.65,426.302 L2395,426.848 L2395,429.005 L2396.8,429.005 C2398.69,429.052 2398.94,429.348 2398.94,431.505 L2398.94,455.942 C2398.9,456.645 2398.85,456.942 2398.65,457.192 C2398.3,457.645 2397.35,457.848 2395.19,457.895 L2395,457.895 L2395,459.692 L2408,459.692 L2408,457.895 L2407.44,457.895 C2404.1,457.802 2403.65,457.552 2403.65,455.755 L2403.65,446.302 C2405.3,449.192 2407.15,450.348 2410.25,450.348 C2416.9,450.348 2420.35,443.802 2420.35,437.848 C2420.35,432.192 2416.9,425.552 2410.55,425.552 C2407.44,425.552 2405.4,426.848 2403.65,429.848 L2403.65,426.302 M2409.65,428.255 C2413.1,428.255 2415.1,431.692 2415.1,437.552 C2415.1,444.005 2413.1,447.645 2409.5,447.645 C2405.9,447.645 2403.6,443.942 2403.6,438.192 C2403.6,431.942 2405.85,428.255 2409.65,428.255 M2435.19,425.552 C2429.05,425.552 2424.3,431.005 2424.3,438.005 C2424.3,444.848 2429.1,450.348 2435.1,450.348 C2441.1,450.348 2445.9,444.848 2445.9,437.942 C2445.9,431.098 2441.1,425.552 2435.19,425.552 M2435.19,427.692 C2438.69,427.692 2440.65,431.348 2440.65,437.942 C2440.65,444.598 2438.69,448.192 2435.1,448.192 C2431.5,448.192 2429.55,444.598 2429.55,438.005 C2429.55,431.192 2431.44,427.692 2435.19,427.692 M2467.1,425.755 L2465.35,425.755 L2463.9,427.552 C2462.1,426.145 2460.3,425.552 2457.8,425.552 C2453.4,425.552 2450.5,428.395 2450.5,432.802 C2450.5,437.505 2453.55,438.692 2457.55,439.645 L2460.19,440.255 C2464.15,441.192 2465.55,442.192 2465.55,444.192 C2465.55,446.552 2463.5,448.192 2460.6,448.192 C2456.35,448.192 2453.35,445.505 2452.15,440.505 L2450.15,440.505 L2450.15,449.942 L2451.9,449.942 L2453.65,447.895 C2455.69,449.552 2457.94,450.348 2460.5,450.348 C2465.4,450.348 2468.65,447.302 2468.65,442.645 C2468.65,440.442 2467.94,438.755 2466.55,437.598 C2465.35,436.552 2464.35,436.145 2461.3,435.505 L2458.8,434.942 C2456.05,434.348 2456.05,434.348 2455.15,433.848 C2454.05,433.348 2453.4,432.302 2453.4,431.192 C2453.4,429.145 2455.3,427.755 2458.05,427.755 C2462.15,427.755 2464.15,430.645 2465.35,434.145 L2467.1,434.145 L2467.1,425.755 M2493.85,438.348 C2493.9,430.848 2489.65,425.552 2483.55,425.552 C2477.15,425.552 2472.35,431.098 2472.35,438.598 C2472.35,445.645 2476.9,450.348 2483.65,450.348 C2488.44,450.348 2491.8,448.005 2493.85,443.255 L2492.1,442.302 C2490.05,446.145 2487.94,447.645 2484.6,447.645 C2482.05,447.645 2480.19,446.598 2478.9,444.348 C2478,442.848 2477.6,441.098 2477.65,438.348 L2493.85,438.348 M2477.69,436.192 C2477.69,432.692 2479.3,427.692 2483.5,427.692 C2486.5,427.692 2488.5,430.348 2488.5,434.395 C2488.5,435.802 2488.05,436.192 2486.44,436.192 L2477.69,436.192 M2505.5,426.302 L2496.65,426.848 L2496.65,429.005 L2498.69,429.005 C2500.6,429.052 2500.85,429.348 2500.85,431.505 L2500.85,445.802 C2500.8,446.552 2500.75,446.848 2500.55,447.098 C2500.19,447.552 2499.19,447.755 2497.05,447.802 L2496.85,447.802 L2496.85,449.598 L2510.19,449.598 L2510.19,447.802 L2509.3,447.802 C2505.94,447.692 2505.5,447.442 2505.5,445.645 L2505.5,442.942 C2505.55,434.552 2508.55,428.145 2512.44,427.942 C2511.75,428.755 2511.55,429.255 2511.55,430.192 C2511.55,431.802 2512.69,432.942 2514.3,432.942 C2516.15,432.942 2517.35,431.598 2517.35,429.598 C2517.35,427.145 2515.65,425.552 2513,425.552 C2509.85,425.552 2507.15,428.052 2505.5,432.505 L2505.5,426.302 M2543.8,412.802 L2530.44,450.302 L2533.35,450.302 L2546.69,412.802 L2543.8,412.802 M2582.19,433.505 C2582.19,430.348 2581.65,428.755 2580.19,427.552 C2578.55,426.192 2576.1,425.552 2572.9,425.552 C2567.25,425.552 2563.15,428.192 2563.15,431.848 C2563.15,433.692 2564.3,434.895 2566.05,434.895 C2567.65,434.895 2568.75,433.848 2568.75,432.348 C2568.75,431.692 2568.5,431.005 2568,430.302 C2567.69,429.942 2567.65,429.848 2567.65,429.598 C2567.65,428.598 2569.65,427.692 2572.05,427.692 C2573.65,427.692 2575.4,428.192 2576.19,428.942 C2577.15,429.755 2577.5,430.942 2577.5,433.192 L2577.5,435.145 C2572.3,436.052 2570.65,436.442 2568.19,437.395 C2563.85,439.005 2561.8,441.302 2561.8,444.505 C2561.8,448.098 2564.6,450.348 2569.05,450.348 C2572.5,450.348 2575.6,448.942 2577.75,446.395 C2578.55,448.942 2579.8,449.942 2582.15,449.942 C2584.4,449.942 2586.75,448.505 2586.75,447.052 C2586.75,446.692 2586.55,446.442 2586.25,446.442 C2586.05,446.442 2585.85,446.505 2585.5,446.645 C2584.8,446.942 2584.5,447.005 2584.1,447.005 C2582.69,447.005 2582.19,446.098 2582.19,443.552 L2582.19,433.505 M2577.5,439.598 C2577.5,442.598 2577.35,443.302 2576.5,444.598 C2575.25,446.442 2573,447.692 2570.8,447.692 C2568.5,447.692 2566.85,446.052 2566.85,443.802 C2566.85,441.692 2567.9,440.192 2570.1,439.145 C2571.65,438.442 2573.6,437.942 2577.5,437.302 L2577.5,439.598 M2597.5,426.302 L2588.65,426.848 L2588.65,429.005 L2590.69,429.005 C2592.6,429.052 2592.85,429.348 2592.85,431.505 L2592.85,445.802 C2592.8,446.552 2592.75,446.848 2592.55,447.098 C2592.19,447.552 2591.19,447.755 2589.05,447.802 L2588.85,447.802 L2588.85,449.598 L2602.19,449.598 L2602.19,447.802 L2601.3,447.802 C2597.94,447.692 2597.5,447.442 2597.5,445.645 L2597.5,442.942 C2597.55,434.552 2600.55,428.145 2604.44,427.942 C2603.75,428.755 2603.55,429.255 2603.55,430.192 C2603.55,431.802 2604.69,432.942 2606.3,432.942 C2608.15,432.942 2609.35,431.598 2609.35,429.598 C2609.35,427.145 2607.65,425.552 2605,425.552 C2601.85,425.552 2599.15,428.052 2597.5,432.505 L2597.5,426.302 M2620.5,426.302 L2611.65,426.848 L2611.65,429.005 L2613.69,429.005 C2615.6,429.052 2615.85,429.348 2615.85,431.505 L2615.85,445.802 C2615.8,446.552 2615.75,446.848 2615.55,447.098 C2615.19,447.552 2614.19,447.755 2612.05,447.802 L2611.85,447.802 L2611.85,449.598 L2625.19,449.598 L2625.19,447.802 L2624.3,447.802 C2620.94,447.692 2620.5,447.442 2620.5,445.645 L2620.5,442.942 C2620.55,434.552 2623.55,428.145 2627.44,427.942 C2626.75,428.755 2626.55,429.255 2626.55,430.192 C2626.55,431.802 2627.69,432.942 2629.3,432.942 C2631.15,432.942 2632.35,431.598 2632.35,429.598 C2632.35,427.145 2630.65,425.552 2628,425.552 C2624.85,425.552 2622.15,428.052 2620.5,432.505 L2620.5,426.302 M2655.19,433.505 C2655.19,430.348 2654.65,428.755 2653.19,427.552 C2651.55,426.192 2649.1,425.552 2645.9,425.552 C2640.25,425.552 2636.15,428.192 2636.15,431.848 C2636.15,433.692 2637.3,434.895 2639.05,434.895 C2640.65,434.895 2641.75,433.848 2641.75,432.348 C2641.75,431.692 2641.5,431.005 2641,430.302 C2640.69,429.942 2640.65,429.848 2640.65,429.598 C2640.65,428.598 2642.65,427.692 2645.05,427.692 C2646.65,427.692 2648.4,428.192 2649.19,428.942 C2650.15,429.755 2650.5,430.942 2650.5,433.192 L2650.5,435.145 C2645.3,436.052 2643.65,436.442 2641.19,437.395 C2636.85,439.005 2634.8,441.302 2634.8,444.505 C2634.8,448.098 2637.6,450.348 2642.05,450.348 C2645.5,450.348 2648.6,448.942 2650.75,446.395 C2651.55,448.942 2652.8,449.942 2655.15,449.942 C2657.4,449.942 2659.75,448.505 2659.75,447.052 C2659.75,446.692 2659.55,446.442 2659.25,446.442 C2659.05,446.442 2658.85,446.505 2658.5,446.645 C2657.8,446.942 2657.5,447.005 2657.1,447.005 C2655.69,447.005 2655.19,446.098 2655.19,443.552 L2655.19,433.505 M2650.5,439.598 C2650.5,442.598 2650.35,443.302 2649.5,444.598 C2648.25,446.442 2646,447.692 2643.8,447.692 C2641.5,447.692 2639.85,446.052 2639.85,443.802 C2639.85,441.692 2640.9,440.192 2643.1,439.145 C2644.65,438.442 2646.6,437.942 2650.5,437.302 L2650.5,439.598 M2670.6,426.302 L2661.94,426.848 L2661.94,429.005 L2663.75,429.005 C2665.65,429.052 2665.9,429.348 2665.9,431.505 L2665.9,445.802 C2665.85,446.552 2665.8,446.848 2665.6,447.098 C2665.25,447.552 2664.3,447.755 2662.15,447.802 L2661.94,447.802 L2661.94,449.598 L2674.6,449.598 L2674.6,447.802 L2674.4,447.802 C2671.05,447.692 2670.6,447.442 2670.6,445.645 L2670.6,438.255 C2670.6,435.802 2670.94,433.552 2671.5,432.395 C2672.55,430.145 2674.8,428.598 2676.94,428.598 C2678.25,428.598 2679.75,429.302 2680.5,430.348 C2681.25,431.442 2681.6,432.942 2681.6,435.348 L2681.6,445.802 C2681.55,446.552 2681.5,446.848 2681.3,447.098 C2680.94,447.552 2679.94,447.755 2677.8,447.802 L2677.6,447.802 L2677.6,449.598 L2690.25,449.598 L2690.25,447.802 L2690.05,447.802 C2686.75,447.692 2686.3,447.442 2686.3,445.645 L2686.3,435.598 C2686.3,432.005 2686.15,431.098 2685.25,429.395 C2684,427.005 2681.5,425.552 2678.5,425.552 C2675.25,425.552 2672.8,427.052 2670.6,430.348 L2670.6,426.302 M2701.4,445.895 C2698.65,445.848 2698.5,445.802 2697.9,445.442 C2697.55,445.255 2697.3,444.692 2697.3,444.145 C2697.3,442.645 2698.65,442.005 2702,441.895 C2706.69,441.802 2707.44,441.692 2709.15,440.942 C2712.15,439.598 2713.8,437.005 2713.8,433.692 C2713.8,431.692 2713.35,430.442 2712,428.802 C2712.85,427.895 2713.3,427.598 2713.69,427.598 C2713.94,427.598 2714.1,427.755 2714.19,428.302 C2714.4,429.505 2715.19,430.145 2716.44,430.145 C2717.75,430.145 2718.71,429.098 2718.71,427.755 C2718.71,426.052 2717.35,424.848 2715.4,424.848 C2713.8,424.848 2712.9,425.348 2710.6,427.442 C2708.5,426.052 2706.9,425.552 2704.4,425.552 C2698.44,425.552 2694.55,428.848 2694.55,433.848 C2694.55,436.802 2696.15,439.302 2698.75,440.552 C2695.4,441.302 2694,442.802 2694,445.552 C2694,447.755 2695,449.052 2697.35,449.848 C2694.25,451.005 2692.75,452.552 2692.75,454.598 C2692.75,456.098 2693.75,457.505 2695.35,458.348 C2697.3,459.348 2699.69,459.755 2703.3,459.755 C2711.65,459.755 2715.8,457.098 2715.8,451.848 C2715.8,449.348 2714.65,447.348 2712.85,446.598 C2711.5,446.098 2709.9,445.895 2706.5,445.895 L2701.4,445.895 M2704.35,427.692 C2707.44,427.692 2709.19,429.848 2709.19,433.755 C2709.19,437.645 2707.3,440.005 2704.15,440.005 C2701.05,440.005 2699.1,437.645 2699.1,433.895 C2699.1,429.942 2701,427.692 2704.35,427.692 M2703.9,450.192 C2708.05,450.192 2708.35,450.192 2709.05,450.302 C2711.1,450.505 2712.3,451.598 2712.3,453.192 C2712.3,456.052 2709.05,457.692 2703.5,457.692 C2699.25,457.692 2696.9,456.442 2696.9,454.192 C2696.9,452.552 2697.8,451.442 2700.19,450.192 L2703.9,450.192 M2740.85,438.348 C2740.9,430.848 2736.65,425.552 2730.55,425.552 C2724.15,425.552 2719.35,431.098 2719.35,438.598 C2719.35,445.645 2723.9,450.348 2730.65,450.348 C2735.44,450.348 2738.8,448.005 2740.85,443.255 L2739.1,442.302 C2737.05,446.145 2734.94,447.645 2731.6,447.645 C2729.05,447.645 2727.19,446.598 2725.9,444.348 C2725,442.848 2724.6,441.098 2724.65,438.348 L2740.85,438.348 M2724.69,436.192 C2724.69,432.692 2726.3,427.692 2730.5,427.692 C2733.5,427.692 2735.5,430.348 2735.5,434.395 C2735.5,435.802 2735.05,436.192 2733.44,436.192 L2724.69,436.192 M2752.5,426.302 L2743.65,426.848 L2743.65,429.005 L2745.69,429.005 C2747.6,429.052 2747.85,429.348 2747.85,431.505 L2747.85,445.802 C2747.8,446.552 2747.75,446.848 2747.55,447.098 C2747.19,447.552 2746.19,447.755 2744.05,447.802 L2743.85,447.802 L2743.85,449.598 L2757.19,449.598 L2757.19,447.802 L2756.3,447.802 C2752.94,447.692 2752.5,447.442 2752.5,445.645 L2752.5,442.942 C2752.55,434.552 2755.55,428.145 2759.44,427.942 C2758.75,428.755 2758.55,429.255 2758.55,430.192 C2758.55,431.802 2759.69,432.942 2761.3,432.942 C2763.15,432.942 2764.35,431.598 2764.35,429.598 C2764.35,427.145 2762.65,425.552 2760,425.552 C2756.85,425.552 2754.15,428.052 2752.5,432.505 L2752.5,426.302 "/>
<polyline class="BarLine" fill="none" stroke="#000000" stroke-width="4.46" stroke-linejoin="bevel" points="859.557,632.834 859.557,734.762" />
<polyline class="BarLine" fill="none" stroke="#000000" stroke-width="13.64" stroke-linejoin="bevel" points="877.785,632.834 877.785,734.762" />
<path class="Accidental" transform="matrix(0.992,0,0,0.992,523.129,745.798)" d="M7.79688,-7.40625 L16.7031,-9.20313 L16.7031,7.29688 L7.79688,9.20313 L7.79688,-7.40625 M23.2969,-10.5 C23.9063,-10.5938 24.4063,-11.2969 24.4063,-11.9063 L24.4063,-17.7969 C24.4063,-18.5938 23.7969,-19.2031 23,-19.2031 L22.7969,-19.2031 L19.5,-18.5 L19.5,-33.4063 L16.7031,-33.4063 L16.7031,-17.9063 L7.79688,-16.0938 L7.79688,-30.2031 L5,-30.2031 L5,-15.5 L1.09375,-14.7031 C0.5,-14.5938 0,-13.9063 0,-13.2969 L0,-7.5 C0,-6.70313 0.59375,-6.09375 1.40625,-6.09375 L1.70313,-6.09375 L5,-6.79688 L5,9.70313 L1.09375,10.5 C0.5,10.5938 0,11.2969 0,11.9063 L0,17.7031 C0,18.5 0.59375,19.0938 1.40625,19.0938 L1.70313,19.0938 L5,18.4063 L5,33.2969 L7.79688,33.2969 L7.79688,17.7969 L16.7031,16 L16.7031,30.1094 L19.5,30.1094 L19.5,15.4063 L23.2969,14.7031 C23.9063,14.5938 24.4063,13.9063 24.4063,13.2969 L24.4063,7.40625 C24.4063,6.59375 23.7969,6 23,6 L22.7969,6 L19.5,6.70313 L19.5,-9.79688 L23.2969,-10.5 "/>
<polyline class="Stem" fill="none" stroke="#000000" stroke-width="2.48" stroke-linejoin="bevel" points="584.525,741.83 584.525,658.998" />
<path class="Note" transform="matrix(0.992,0,0,0.992,553.525,745.798)" d="M0,4.20313 C0,8.5 3.09375,13.2969 11.2031,13.2969 C21.5938,13.2969 32.5,4.79688 32.5,-4 C32.5,-9.90625 27.5,-13.2031 21.2969,-13.2031 C11.5938,-13.2031 0,-5 0,4.20313"/>
<path class="Clef" transform="matrix(0.992,0,0,0.992,355.198,708.598)" d="M42,20.5938 C40,21 38.1094,21.2031 36.2031,21.2031 C21.9063,21.2031 9.70313,11.2031 9.70313,-3.90625 C9.70313,-16.0938 18.2969,-27 27.1094,-34.6094 C28.7969,-36.1094 30.4063,-37.5 31.9063,-39 C32.7969,-33.6094 33.5,-28.9063 34.2031,-24.7969 C25.0938,-22.0938 18.9063,-12.5 18.9063,-3.09375 C18.9063,3.90625 24.4063,13.5 32.4063,13.5 C33.2031,13.5 34.1094,13.0938 34.1094,12.2031 C34.1094,11.2969 33.1094,10.7969 31.9063,10 C28,7.59375 25.7969,5 25.7969,0.09375 C25.7969,-6 30.2969,-10.9063 36.2031,-12.2969 L42,20.5938 M33.2031,-82.2031 C34.1094,-86.2031 38.7031,-96.7031 43.9063,-96.7031 C45.4063,-96.7031 47.7969,-91.8125 47.7969,-84.9063 C47.7969,-74.5 40.1094,-66.7031 33.2031,-59.9063 C32.6094,-63.9063 32.1094,-67.7969 32.1094,-72 C32.1094,-75.7031 32.4063,-79.1094 33.2031,-82.2031 M56.2031,2.09375 C56.2031,9.20313 53.2969,16.5 46.2031,19.4063 C44.1094,7.40625 41.4063,-8.5 40.7031,-12.9063 C49.7031,-12.9063 56.2031,-6.79688 56.2031,2.09375 M12.2031,51.2969 C12.2031,57.9063 17.2969,66.6094 30.7969,66.6094 C35.5,66.6094 39.6094,65.4063 43.2031,63.2031 C48.6094,59.4063 50,52.7969 50,46.5 C50,42.6094 49.4063,38.1094 48.4063,32.4063 C48.1094,30.4063 47.5,27.4063 46.9063,23.5 C56.7031,20.2969 64,10.0938 64,-0.203125 C64,-15.2969 53.2969,-25.5 38.7031,-25.5 C37.7031,-31.5 36.7031,-37.4063 35.7969,-43 C46.4063,-54.1094 53.7031,-66.6094 53.7031,-82.5 C53.7031,-91.6094 50.9063,-99 49.2969,-102.609 C46.9063,-107.703 44,-111.203 42.2031,-111.203 C41.5,-111.203 38.4063,-110 35.1094,-106.109 C28.7031,-98.5 26.9063,-85.7031 26.9063,-77.3125 C26.9063,-71.9063 27.4063,-67 29.1094,-55.7969 C29,-55.7031 23.7969,-50.4063 21.7031,-48.7031 C12.5938,-40.2031 0,-28.1094 0,-8.09375 C0,10.5938 16.2969,25.2969 34.9063,25.2969 C37.7969,25.2969 40.5,25 42.7969,24.5938 C44.7031,34.2031 45.7969,41.2031 45.7969,46.5 C45.7969,56.9063 40.5,62.4063 30.4063,62.4063 C28,62.4063 25.9063,61.9063 25.7031,61.9063 C25.6094,61.7969 25.4063,61.7031 25.4063,61.6094 C25.4063,61.4063 25.6094,61.2969 25.9063,61.2031 C30.6094,60.5 35.2969,56.5 35.2969,50.1094 C35.2969,44.7031 31.2031,39 23.7031,39 C16.7031,39 12.2031,44.7031 12.2031,51.2969"/>
<path class="TimeSig" transform="matrix(0.992,0,0,0.992,442.095,658.998)" d="M20.7969,12.7031 L20.7969,20.0938 L12.5,20.0938 C11.7969,20.0938 11.0938,20.7031 11.0938,21.5 L11.0938,23.4063 C11.0938,24.2031 11.7969,24.7969 12.5,24.7969 L42.7969,24.7969 C43.6094,24.7969 44.2031,24.2031 44.2031,23.4063 L44.2031,21.5 C44.2031,20.7031 43.6094,20.0938 42.7969,20.0938 L33.7969,20.0938 L33.7969,12.7031 L42.7969,12.7031 C43.6094,12.7031 44.2031,12 44.2031,11.2031 L44.2031,9.29688 C44.2031,8.59375 43.6094,7.90625 42.7969,7.90625 L33.7969,7.90625 L33.7969,-8 C33.7969,-8.59375 33.5,-9.09375 33.1094,-9.29688 L31.9063,-9.90625 C31.7031,-10 31.6094,-10 31.4063,-10 C31,-10 30.6094,-10 30.2969,-9.70313 L21.2031,-1.40625 C20.9063,-1.09375 20.7969,-0.703125 20.7969,-0.296875 L20.7969,7.90625 L9.20313,7.90625 C9.20313,7.90625 20.4063,-4.09375 32.2031,-19.9063 C32.6094,-20.4063 32.7031,-20.9063 32.7031,-21.2969 C32.7031,-21.7969 32.5,-22.2031 32.4063,-22.2969 L30.2031,-24.5 C29.9063,-24.7031 29.6094,-24.9063 29.2031,-24.9063 C28.6094,-24.9063 15.0938,-24.9063 14.2969,-24.9063 C13.5938,-24.9063 13.0938,-24.2969 13,-23.7031 C13,-23.7031 12.5,-16.2969 9.90625,-8.20313 C7.29688,-0.09375 4.29688,4.90625 1.70313,8.59375 C1.70313,8.59375 1.40625,9.09375 1.40625,9.70313 C1.40625,9.90625 1.40625,10.0938 1.5,10.2969 C1.79688,11 2.5,12.0938 2.5,12.0938 C2.5,12.0938 2.70313,12.7031 3.59375,12.7031 L20.7969,12.7031 "/>
<path class="TimeSig" transform="matrix(0.992,0,0,0.992,442.095,708.598)" d="M20.7969,12.7031 L20.7969,20.0938 L12.5,20.0938 C11.7969,20.0938 11.0938,20.7031 11.0938,21.5 L11.0938,23.4063 C11.0938,24.2031 11.7969,24.7969 12.5,24.7969 L42.7969,24.7969 C43.6094,24.7969 44.2031,24.2031 44.2031,23.4063 L44.2031,21.5 C44.2031,20.7031 43.6094,20.0938 42.7969,20.0938 L33.7969,20.0938 L33.7969,12.7031 L42.7969,12.7031 C43.6094,12.7031 44.2031,12 44.2031,11.2031 L44.2031,9.29688 C44.2031,8.59375 43.6094,7.90625 42.7969,7.90625 L33.7969,7.90625 L33.7969,-8 C33.7969,-8.59375 33.5,-9.09375 33.1094,-9.29688 L31.9063,-9.90625 C31.7031,-10 31.6094,-10 31.4063,-10 C31,-10 30.6094,-10 30.2969,-9.70313 L21.2031,-1.40625 C20.9063,-1.09375 20.7969,-0.703125 20.7969,-0.296875 L20.7969,7.90625 L9.20313,7.90625 C9.20313,7.90625 20.4063,-4.09375 32.2031,-19.9063 C32.6094,-20.4063 32.7031,-20.9063 32.7031,-21.2969 C32.7031,-21.7969 32.5,-22.2031 32.4063,-22.2969 L30.2031,-24.5 C29.9063,-24.7031 29.6094,-24.9063 29.2031,-24.9063 C28.6094,-24.9063 15.0938,-24.9063 14.2969,-24.9063 C13.5938,-24.9063 13.0938,-24.2969 13,-23.7031 C13,-23.7031 12.5,-16.2969 9.90625,-8.20313 C7.29688,-0.09375 4.29688,4.90625 1.70313,8.59375 C1.70313,8.59375 1.40625,9.09375 1.40625,9.70313 C1.40625,9.90625 1.40625,10.0938 1.5,10.2969 C1.79688,11 2.5,12.0938 2.5,12.0938 C2.5,12.0938 2.70313,12.7031 3.59375,12.7031 L20.7969,12.7031 "/>
<path class="Rest" transform="matrix(0.992,0,0,0.992,640.325,683.798)" d="M23,16.5938 C22.9063,16.5 22.7031,16.2969 22.4063,15.9063 L10.9063,1.70313 C10.7969,1.59375 10.7031,1.29688 10.7031,1.09375 C10.7031,0.796875 10.7969,0.40625 10.9063,0.203125 L21.0938,-15.2031 C21.2031,-15.4063 21.2969,-15.7031 21.2969,-15.9063 L21.2969,-16.7969 C21.2969,-17.0938 21.2031,-17.4063 21,-17.5938 L4.79688,-39.5 C4.79688,-39.5 4.40625,-40.1094 3.79688,-40.1094 C3.5,-40.1094 3.29688,-40 3,-39.7969 C2.59375,-39.5 2.5,-39.1094 2.5,-38.7969 C2.5,-38.2031 2.79688,-37.7031 2.79688,-37.7031 L10.4063,-27.2969 C10.5938,-27 10.7031,-26.6094 10.7031,-26.1094 C10.7031,-25.7031 10.5938,-25.2031 10.4063,-24.9063 L0.296875,-9.5 C0.203125,-9.29688 0.09375,-8.90625 0.09375,-8.70313 L0.09375,-7.79688 C0.09375,-7.5 0.203125,-7.20313 0.40625,-7 L11.5938,6.90625 C11.2031,6.79688 10.2969,6.59375 9.09375,6.59375 C4,6.59375 0,10.7969 0,15.9063 C0,17.2969 0.296875,18.7031 1.09375,19.7969 C3.20313,23 10.7031,32.5 10.7031,32.5 C10.7031,32.5 11.2031,33.1094 11.9063,33.1094 C12.0938,33.1094 12.2969,33.1094 12.5,32.9063 C13,32.5 13.2031,32.1094 13.2031,31.7031 C13.2031,31.2969 13,31 12.9063,30.7969 C12.5938,30.2969 9.40625,24.5 9.40625,24.5 C9.40625,24.5 8.70313,23.0938 8.70313,21.2969 C8.70313,18.0938 11.0938,15.5 14.2969,15.5 C15.5938,15.5 16.7031,15.9063 17.5,16.4063 L21.4063,18.9063 C21.4063,18.9063 21.7969,19.0938 22.2031,19.0938 C22.5938,19.0938 22.9063,19 23.2031,18.5938 C23.4063,18.2031 23.5,18 23.5,17.7031 C23.5,17.4063 23.4063,17.2031 23.2031,16.9063 L23,16.5938 "/>
<path class="Rest" transform="matrix(0.992,0,0,0.992,727.125,683.798)" d="M0,-1 C0,0.40625 0,0.40625 1.40625,0.40625 L31.1094,0.40625 C32.5,0.40625 32.5,0.40625 32.5,-1 L32.5,-11.7969 C32.5,-13.2031 32.5,-13.2031 31.1094,-13.2031 L1.40625,-13.2031 C0,-13.2031 0,-13.2031 0,-11.7969 L0,-1 "/>
</svg>
