<?xml version="1.0" encoding="UTF-8" standalone="no"?>
<svg
   width="551.05658"
   height="704.59729"
   viewBox="0 0 551.05658 704.5973"
   version="1.2"
   id="svg10"
   sodipodi:docname="treble-sol-first.svg"
   inkscape:export-filename="treble-sol-b-first.png"
   inkscape:export-xdpi="28.6"
   inkscape:export-ydpi="28.6"
   xmlns:inkscape="http://www.inkscape.org/namespaces/inkscape"
   xmlns:sodipodi="http://sodipodi.sourceforge.net/DTD/sodipodi-0.dtd"
   xmlns="http://www.w3.org/2000/svg"
   xmlns:svg="http://www.w3.org/2000/svg"
   xmlns:rdf="http://www.w3.org/1999/02/22-rdf-syntax-ns#"
   xmlns:cc="http://creativecommons.org/ns#"
   xmlns:dc="http://purl.org/dc/elements/1.1/">
  <defs
     id="defs10" />
  <sodipodi:namedview
     id="namedview10"
     pagecolor="#505050"
     bordercolor="#eeeeee"
     borderopacity="1"
     inkscape:showpageshadow="0"
     inkscape:pageopacity="0"
     inkscape:pagecheckerboard="0"
     inkscape:deskcolor="#505050"
     showguides="false">
    <inkscape:page
       x="0"
       y="0"
       width="551.05658"
       height="704.59729"
       id="page2"
       margin="0"
       bleed="0" />
  </sodipodi:namedview>
  <title
     id="title1">Untitled score</title>
  <desc
     id="desc1">Generated by MuseScore Studio 4.4.4</desc>
  <path
     class=""
     fill="#ffffff"
     fill-rule="evenodd"
     d="M 0,0 H 551.05657 V 704.59732 H 0 V 0"
     id="path1"
     style="stroke-width:0.176332" />
  <polyline
     class="StaffLines"
     fill="none"
     stroke="#000000"
     stroke-width="10.91"
     stroke-linejoin="bevel"
     points="1346.46,1403.15 2989.56,1403.15"
     id="polyline1"
     transform="matrix(0.32940963,0,0,0.53024746,-438.31001,-496.9297)" />
  <polyline
     class="StaffLines"
     fill="none"
     stroke="#000000"
     stroke-width="10.91"
     stroke-linejoin="bevel"
     points="1346.46,1502.36 2989.56,1502.36"
     id="polyline2"
     transform="matrix(0.32940963,0,0,0.53024746,-438.31001,-496.9297)" />
  <polyline
     class="StaffLines"
     fill="none"
     stroke="#000000"
     stroke-width="10.91"
     stroke-linejoin="bevel"
     points="1346.46,1601.57 2989.56,1601.57"
     id="polyline3"
     transform="matrix(0.32940963,0,0,0.53024746,-438.31001,-496.9297)" />
  <polyline
     class="StaffLines"
     fill="none"
     stroke="#000000"
     stroke-width="10.91"
     stroke-linejoin="bevel"
     points="1346.46,1700.79 2989.56,1700.79"
     id="polyline4"
     transform="matrix(0.32940963,0,0,0.53024746,-438.31001,-496.9297)" />
  <polyline
     class="StaffLines"
     fill="none"
     stroke="#000000"
     stroke-width="10.91"
     stroke-linejoin="bevel"
     points="1346.46,1800 2989.56,1800"
     id="polyline5"
     transform="matrix(0.32940963,0,0,0.53024746,-438.31001,-496.9297)" />
  <polyline
     class="BarLine"
     fill="none"
     stroke="#000000"
     stroke-width="17.86"
     stroke-linejoin="bevel"
     points="2889.35,1397.69 2889.35,1805.46"
     id="polyline6"
     transform="matrix(0.32940963,0,0,0.53024746,-438.31001,-496.9297)" />
  <polyline
     class="BarLine"
     fill="none"
     stroke="#000000"
     stroke-width="54.57"
     stroke-linejoin="bevel"
     points="2962.28,1397.69 2962.28,1805.46"
     id="polyline7"
     transform="matrix(0.32940963,0,0,0.53024746,-438.31001,-496.9297)" />
  <polyline
     class="Stem"
     fill="none"
     stroke="#000000"
     stroke-width="9.92"
     stroke-linejoin="bevel"
     points="2292.32,1883.34 2292.32,1551.97"
     id="polyline9"
     transform="matrix(0.4525609,0,0,0.49387373,-685.77236,-534.05017)" />
  <path
     class="Note"
     d="m 295.54718,412.15764 c 0,8.42174 5.55621,17.82339 20.1206,17.82339 18.66166,0 38.24898,-16.65952 38.24898,-33.90103 0,-11.57577 -8.97997,-18.03746 -20.1206,-18.03746 -17.42677,0 -38.24898,16.07764 -38.24898,34.1151"
     id="path9"
     style="stroke-width:1.87616" />
  <path
     class="Accidental"
     d="m 273.73568,398.71141 c 0,12.70241 -6.60225,19.43023 -15.91572,26.83575 l 0.47675,-31.32934 c 0.32616,-1.45599 2.7363,-6.10025 9.16281,-6.10025 5.79907,0 6.2759,5.44753 6.2759,8.83655 v 1.75729 m -1.93294,-18.47635 c -8.0332,0 -12.70249,4.97048 -13.50577,5.94958 l 0.65266,-51.58812 c 0,-1.28016 -0.95389,-2.23418 -2.25932,-2.23418 h -1.90761 c -1.30539,0 -2.25934,0.95402 -2.25934,2.23418 l 0.80334,96.57388 c 0,1.28034 0.95389,2.23437 2.25933,2.23437 0.30124,0 0.95389,-0.15062 1.2803,-0.30125 13.80704,-6.92861 28.26675,-20.08302 28.26675,-36.65145 0,-8.3345 -3.84085,-16.21701 -13.3301,-16.21701"
     id="path8"
     style="stroke-width:1.60663" />
  <path
     class="Clef"
     d="m 39.783659,512.8534 c 0,13.90806 9.641237,32.2219 35.672899,32.2219 9.06874,0 16.99282,-2.53174 23.92225,-7.16776 10.424752,-7.98951 13.106232,-21.89757 13.106232,-35.14825 0,-8.18675 -1.14466,-17.65604 -3.07318,-29.65717 -0.57228,-4.20866 -1.7475,-10.52148 -2.89216,-18.74155 18.89077,-6.74007 32.96109,-28.21027 32.96109,-49.87804 0,-31.76156 -20.63849,-53.23187 -48.779022,-53.23187 -1.92818,-12.62564 -3.8567,-25.05425 -5.39306,-36.82483 20.246682,-23.37756 34.317002,-49.68113 34.317002,-83.1196 0,-19.16879 -5.39307,-34.72067 -8.49636,-42.31491 -4.60965,-10.71938 -10.21384,-18.08428 -13.678722,-18.08428 -1.3558,0 -7.32125,2.5313 -13.67851,10.71916 -12.35305,16.01145 -15.81782,42.93996 -15.81782,60.59621 0,11.37609 0.96409,21.70032 4.24829,45.2748 -0.21102,0.19757 -10.24396,11.34343 -14.28134,14.92748 -17.565202,17.68913 -41.849145,43.33511 -41.849145,85.45366 0,39.32414 31.424613,70.26363 67.308425,70.26363 5.57386,0 10.78601,-0.62483 15.21509,-1.47956 3.675682,20.22077 5.995682,34.95068 5.995682,46.09687 0,21.89789 -10.424762,33.47156 -29.887922,33.47156 -4.63999,0 -8.67726,-1.05208 -9.06907,-1.05208 -0.18069,-0.23023 -0.572165,-0.42759 -0.572165,-0.62483 0,-0.42736 0.391475,-0.65781 0.963975,-0.65781 9.06885,-1.67669 18.10748,-10.094 18.10748,-23.54149 0,-11.37642 -7.89385,-23.37756 -22.355765,-23.37756 -13.497822,0 -21.994174,12.00114 -21.994174,25.87632 M 80.096328,231.93106 c 1.7475,-8.41698 10.60544,-30.51212 20.638492,-30.51212 2.89239,0 7.50204,10.09378 7.50204,24.82391 0,21.89756 -14.823392,38.30471 -28.140532,52.60726 -1.14488,-8.41731 -2.10909,-16.60418 -2.10909,-25.44874 0,-7.79237 0.57273,-14.96014 2.10909,-21.47031 m 16.96282,216.31416 c -3.85659,0.85484 -7.50226,1.2822 -11.17817,1.2822 -27.567914,0 -51.0989,-21.04273 -51.0989,-52.83716 0,-25.64642 16.570998,-48.59596 33.56393,-64.6084 3.25386,-3.15635 6.35737,-6.08258 9.24964,-9.23894 1.7175,11.34322 3.07318,21.23997 4.42886,29.88729 -17.565202,5.6881 -29.496096,25.87621 -29.496096,45.66962 0,14.73002 10.605214,34.91813 26.031556,34.91813 1.53636,0 3.28386,-0.85473 3.28386,-2.7291 0,-1.90692 -1.92818,-2.959 -4.24818,-4.63591 -7.53226,-5.06338 -11.78044,-10.52148 -11.78044,-20.8456 0,-12.8231 8.88817,-23.14733 20.06577,-26.07356 l 11.17817,69.21143 m 27.387232,-38.92921 c 0,14.96014 -5.60408,30.31477 -19.28281,36.43056 -4.03727,-25.25183 -9.249422,-58.72294 -10.605332,-67.99498 17.354302,0 29.888142,12.85586 29.888142,31.56442"
     id="path10"
     style="stroke-width:2.01434" />
  <metadata
     id="metadata10">
    <rdf:RDF>
      <cc:Work
         rdf:about="">
        <dc:title>Untitled score</dc:title>
      </cc:Work>
    </rdf:RDF>
  </metadata>
</svg>
